
<svg xmlns="http://www.w3.org/2000/svg" version="1.1" xmlns:xlink="http://www.w3.org/1999/xlink" preserveAspectRatio="none" x="0px" y="0px" width="300px" height="300px" viewBox="0 0 300 300">
<defs>
<g id="Layer11_0_FILL">
<path fill="#0066CC" stroke="none" d="
M 191.8 282.3
Q 195.5 284.6 198.35 287.05 206.7 284.05 214.6 280.05 204.8 280.05 191.8 282.3
M 147.85 293.5
Q 145.15 294.35 142.35 295.25 145.35 295.35 148.4 295.35
L 147.85 293.5
M 113 289.75
L 113.1 289.3
Q 112.1 290.1 111.15 290.9 111.9 291.1 112.65 291.25
L 113 289.75
M 232.6 28.45
Q 222.35 21.1 211.3 15.8 211.8 17.8 211.3 24.6 210.85 31.4 177.6 22.05 144.3 12.7 113.3 23.65 88.35 32.45 66.95 26.55 55.35 34.5 44.75 45.05 26.15 63.65 15.65 85.55 30.2 78.8 50.35 84.85 101.8 100.2 111.2 114.7 120.65 129.25 111.35 160 102 190.75 85.3 203.6 68.6 216.5 51.55 215.15 34.5 213.8 35.65 188.85 36.85 163.9 22.65 173.5 8.5 183.05 5.85 184.25 14.95 222.6 44.75 252.4 59.5 267.15 76.3 276.8 76.65 278.2 79.65 278.65 85.2 279.55 100.15 277.2 122.95 273.6 136.6 267.5 154.5 248.55 167.9 226.1 189.4 190 213.25 211.6 237.1 233.2 254.55 229.1 271.95 225 278.45 217.35 295.05 186.5 295.05 148.75 295.05 122.45 287 99.5 275.9 108.95 261.2 108.95 243.65 108.95 234.05 99.25 224.45 89.55 232.1 80.85 239.8 72.2 235.85 50.7 231.9 29.15 232.6 28.45 Z"/>

<path fill="#009933" stroke="none" d="
M 278.45 217.35
Q 271.95 225 254.55 229.1 237.1 233.2 213.25 211.6 189.4 190 167.9 226.1 154.5 248.55 136.6 267.5 142.3 277.15 163.7 279.4 185.05 281.55 191.8 282.3 204.8 280.05 214.6 280.05 234.8 269.7 252.1 252.4 268.35 236.15 278.45 217.35
M 112.7 291.25
L 113 289.75 112.65 291.25 112.7 291.25
M 50.35 84.85
Q 30.2 78.8 15.65 85.55 1.8 114.25 1.8 148.75 1.8 167.3 5.85 184.25 8.5 183.05 22.65 173.5 36.85 163.9 35.65 188.85 34.5 213.8 51.55 215.15 68.6 216.5 85.3 203.6 102 190.75 111.35 160 120.65 129.25 111.2 114.7 101.8 100.2 50.35 84.85
M 235.85 50.7
Q 239.8 72.2 232.1 80.85 224.45 89.55 234.05 99.25 243.65 108.95 261.2 108.95 275.9 108.95 287 99.5 276.45 69.45 252.1 45.05 242.75 35.75 232.6 28.45 231.9 29.15 235.85 50.7 Z"/>

<path fill="#A0B1C9" stroke="none" d="
M 113.1 289.3
L 113 289.75 112.7 291.25
Q 126.9 294.7 142.35 295.25 145.15 294.35 147.85 293.5
L 148.4 295.35
Q 175.1 295.35 198.35 287.05 195.5 284.6 191.8 282.3 185.05 281.55 163.7 279.4 142.3 277.15 136.6 267.5 122.95 273.6 100.15 277.2 85.2 279.55 79.65 278.65 94.6 286.7 111.15 290.9 112.1 290.1 113.1 289.3
M 211.3 24.6
Q 211.8 17.8 211.3 15.8 182.65 2.1 148.4 2.1 109.9 2.1 78.5 19.4 72.6 22.65 66.95 26.55 88.35 32.45 113.3 23.65 144.3 12.7 177.6 22.05 210.85 31.4 211.3 24.6 Z"/>
</g>

<g id="Layer10_0_FILL">
<path fill="#000000" fill-opacity="0.2980392156862745" stroke="none" d="
M 162.1 294.95
Q 162.35 294.85 162.55 294.75
L 161.1 294.85 162 295
Q 162.05 295 162.1 294.95
M 247.8 45.25
L 252.1 45.05
Q 249.9 42.85 247.65 40.75 247.75 43 247.8 45.25 Z"/>
</g>

<g id="Layer8_0_FILL">
<path fill="#0066CC" stroke="none" d="
M 67.95 47.35
Q 64.2 43.95 57.75 45.65 51.35 47.4 46.05 53.3 40.75 59.2 39.7 65.75 38.6 72.35 42.4 75.75 46.2 79.15 52.6 77.4 59 75.65 64.3 69.75 69.6 63.85 70.7 57.3 71.75 50.75 67.95 47.35 Z"/>
</g>
</defs>

<g transform="matrix( 1, 0, 0, 1, 0,0) ">
<use xlink:href="#Layer11_0_FILL"/>
</g>

<g transform="matrix( 1, 0, 0, 1, 0,0) ">
<use xlink:href="#Layer10_0_FILL"/>
</g>

<g transform="matrix( 1, 0, 0, 1, 0,0) ">
<use xlink:href="#Layer8_0_FILL"/>
</g>
</svg>
