
<svg xmlns="http://www.w3.org/2000/svg" version="1.1" xmlns:xlink="http://www.w3.org/1999/xlink" preserveAspectRatio="none" x="0px" y="0px" width="300px" height="300px" viewBox="0 0 300 300">
<defs>
<g id="Earth_Self_0_Layer3_0_FILL">
<path fill="#0066CC" stroke="none" d="
M -16.15 271.7
Q -10.75 271.9 -5.25 271.9
L -6.25 268.55
Q -11.15 270.1 -16.15 271.7
M -69.3 264.6
L -68.7 261.9 -68.5 261.05
Q -70.35 262.5 -72 263.95 -70.7 264.25 -69.3 264.6
M 113.35 244.45
L 113.3 244.45
Q 95.8 244.45 72.45 248.55 79.1 252.65 84.2 257.05 99.15 251.7 113.35 244.45
M 107.4 -229
Q 108.3 -225.45 107.45 -213.25 106.6 -201.05 47 -217.8 -12.65 -234.55 -68.2 -214.95 -112.85 -199.2 -151.2 -209.75 -172.05 -195.5 -191 -176.55 -224.3 -143.25 -243.15 -104 -217.1 -116.1 -181 -105.3 -88.8 -77.8 -71.9 -51.75 -55 -25.75 -71.7 29.4 -88.45 84.5 -118.35 107.55 -148.3 130.6 -178.85 128.2 -209.4 125.75 -207.3 81.05 -205.2 36.35 -230.6 53.55 -256 70.65 -260.7 72.85 -244.4 141.55 -191 194.95 -164.6 221.35 -134.45 238.7 -133.85 241.15 -128.5 242 -118.5 243.6 -91.75 239.35 -50.9 232.9 -26.45 222.05 5.65 188.05 29.65 147.8 68.15 83.1 110.9 121.85 153.65 160.55 184.9 153.2 216.1 145.85 227.75 132.15 257.45 76.85 257.45 9.2 257.45 -37.9 243.05 -79.05 223.15 -62.1 196.85 -62.1 165.35 -62.1 148.15 -79.45 130.95 -96.85 144.7 -112.4 158.45 -127.95 151.4 -166.5 144.3 -205.05 145.6 -206.35 127.25 -219.5 107.4 -229 Z"/>

<path fill="#009933" stroke="none" d="
M -69.3 264.6
L -69.25 264.6 -68.7 261.9 -69.3 264.6
M -181 -105.3
Q -217.1 -116.1 -243.15 -104 -267.95 -52.55 -267.95 9.2 -267.95 42.5 -260.7 72.85 -256 70.65 -230.6 53.55 -205.2 36.35 -207.3 81.05 -209.4 125.75 -178.85 128.2 -148.3 130.6 -118.35 107.55 -88.45 84.5 -71.7 29.4 -55 -25.75 -71.9 -51.75 -88.8 -77.8 -181 -105.3
M 227.75 132.15
Q 216.1 145.85 184.9 153.2 153.65 160.55 110.9 121.85 68.15 83.1 29.65 147.8 5.65 188.05 -26.45 222.05 -16.2 239.3 22.1 243.3 60.4 247.2 72.45 248.55 95.8 244.45 113.3 244.45
L 113.35 244.45
Q 149.5 225.95 180.5 194.95 209.6 165.85 227.75 132.15
M 151.4 -166.5
Q 158.45 -127.95 144.7 -112.4 130.95 -96.85 148.15 -79.45 165.35 -62.1 196.85 -62.1 223.15 -62.1 243.05 -79.05 224.15 -132.9 180.5 -176.55 163.8 -193.25 145.6 -206.35 144.3 -205.05 151.4 -166.5 Z"/>

<path fill="#A0B1C9" stroke="none" d="
M 72.45 248.55
Q 60.4 247.2 22.1 243.3 -16.2 239.3 -26.45 222.05 -50.9 232.9 -91.75 239.35 -118.5 243.6 -128.5 242 -101.7 256.45 -72 263.95 -70.35 262.5 -68.5 261.05
L -68.7 261.9 -69.25 264.6
Q -43.8 270.7 -16.15 271.7 -11.15 270.1 -6.25 268.55
L -5.25 271.9
Q 42.55 271.9 84.2 257.05 79.1 252.65 72.45 248.55
M 107.45 -213.25
Q 108.3 -225.45 107.4 -229 56.1 -253.5 -5.25 -253.5 -74.3 -253.5 -130.5 -222.5 -141.1 -216.7 -151.2 -209.75 -112.85 -199.2 -68.2 -214.95 -12.65 -234.55 47 -217.8 106.6 -201.05 107.45 -213.25 Z"/>
</g>

<g id="Earth_Self_0_Layer2_0_FILL">
<path fill="#000000" fill-opacity="0.2980392156862745" stroke="none" d="
M 19.25 271.2
Q 19.7 271 20.1 270.85
L 17.45 271.05 19.05 271.3
Q 19.15 271.25 19.25 271.2
M 180.5 -176.55
Q 176.55 -180.5 172.55 -184.25 172.7 -180.25 172.85 -176.25
L 180.5 -176.55 Z"/>

<path fill="#000000" fill-opacity="0.34901960784313724" stroke="none" d="
M 243.05 -79.05
Q 242.55 -80.35 242.1 -81.6 238.5 -91.55 234.05 -101.1 234.85 -89.95 235.25 -79 244.15 178.1 20.1 270.85 53.8 267.9 84.2 257.05 99.15 251.7 113.35 244.45 149.5 225.95 180.5 194.95 209.6 165.85 227.75 132.15 257.45 76.85 257.45 9.2 257.45 -37.9 243.05 -79.05 Z"/>

<path fill="#000000" fill-opacity="0.2" stroke="none" d="
M 180.5 -176.55
L 172.85 -176.25
Q 184.6 169.65 -99.75 254.9 -41.75 276.7 17.45 271.05
L 20.1 270.85
Q 244.15 178.1 235.25 -79 234.85 -89.95 234.05 -101.1 215 -142.05 180.5 -176.55 Z"/>
</g>

<g id="Earth_Self_0_Layer1_0_FILL">
<path fill="#000000" stroke="none" d="
M -19.75 -52.5
Q -23.35 -56.55 -28.45 -56.55 -33.55 -56.55 -37.15 -52.5 -40.75 -48.4 -40.75 -42.6 -40.75 -36.8 -37.15 -32.75 -33.55 -28.65 -28.45 -28.65 -23.35 -28.65 -19.75 -32.75 -16.15 -36.8 -16.15 -42.6 -16.15 -48.4 -19.75 -52.5
M -132.5 -58.65
Q -136.1 -62.7 -141.2 -62.7 -146.3 -62.7 -149.9 -58.65 -153.5 -54.55 -153.5 -48.75 -153.5 -42.95 -149.9 -38.9 -146.3 -34.8 -141.2 -34.8 -136.1 -34.8 -132.5 -38.9 -128.9 -42.95 -128.9 -48.75 -128.9 -54.55 -132.5 -58.65 Z"/>
</g>

<g id="Earth_Self_0_Layer0_0_FILL">
<path fill="#459FE4" stroke="none" d="
M -167.75 -175.5
Q -179.2 -172.35 -188.7 -161.8 -198.2 -151.2 -200.1 -139.5 -202 -127.65 -195.2 -121.55 -188.45 -115.45 -176.9 -118.65 -165.45 -121.75 -155.95 -132.35 -146.45 -142.9 -144.55 -154.65 -142.65 -166.4 -149.4 -172.5 -156.2 -178.6 -167.75 -175.5 Z"/>
</g>

<path id="Earth_Self_0_Layer3_0_1_STROKES" stroke="#000000" stroke-width="5" stroke-linejoin="round" stroke-linecap="round" fill="none" d="
M 113.35 244.45
L 113.3 244.45"/>

<path id="Earth_Self_0_Layer1_0_1_STROKES" stroke="#000000" stroke-width="5" stroke-linejoin="round" stroke-linecap="round" fill="none" d="
M -120.05 10.6
Q -87.85 31.9 -51.75 5.7"/>
</defs>

<g transform="matrix( 0.5543975830078125, 0, 0, 0.5543975830078125, 153.25,144.3) ">
<g transform="matrix( 1, 0, 0, 1, 0,0) ">
<use xlink:href="#Earth_Self_0_Layer3_0_FILL"/>

<use xlink:href="#Earth_Self_0_Layer3_0_1_STROKES"/>
</g>

<g transform="matrix( 1, 0, 0, 1, 0,0) ">
<use xlink:href="#Earth_Self_0_Layer2_0_FILL"/>
</g>

<g transform="matrix( 1, 0, 0, 1, 0,0) ">
<use xlink:href="#Earth_Self_0_Layer1_0_FILL"/>

<use xlink:href="#Earth_Self_0_Layer1_0_1_STROKES"/>
</g>

<g transform="matrix( 1, 0, 0, 1, 0,0) ">
<use xlink:href="#Earth_Self_0_Layer0_0_FILL"/>
</g>
</g>
</svg>
