
<svg xmlns="http://www.w3.org/2000/svg" version="1.1" xmlns:xlink="http://www.w3.org/1999/xlink" preserveAspectRatio="none" x="0px" y="0px" width="300px" height="300px" viewBox="0 0 300 300">
<defs>
<g id="Jupiter_Self_0_Layer1_0_FILL">
<path fill="#A77438" stroke="none" d="
M -249.3 164.45
L -250.5 165.25
Q -233.96640625 189.68359375 -211.85 211.8 -189.55 234.1 -164.85 250.75 -149.7705078125 260.9419921875 -133.8 269 -57.2 278 17.1 269 -50.399609375 257.6861328125 -104.15 240.65 -197.4341796875 211.1451171875 -249.3 164.45
M 271.75 -92.95
Q 261.45625 -95.0046875 251.2 -97.2 32.0595703125 -144.3048828125 -155.3 -256.95 -155.6078125 -256.759375 -155.95 -256.6
L -193.25 -229.1
Q -163.35 -209.15 -134.5 -190.8 41.290234375 -102.453125 249.75 -91.8 260.5185546875 -91.2431640625 271.35 -90.9
L 271.75 -92.95 Z"/>

<path fill="#723518" stroke="none" d="
M -250.5 165.25
L -249.3 164.45
Q -197.4341796875 211.1451171875 -104.15 240.65 -44.945703125 228.090625 5.05 205.85 -82.084765625 193.11484375 -188.55 155.55
L -272.8 125.95
Q -263.3328125 146.2962890625 -250.5 165.25
M 220.4 -9.5
Q 131.0255859375 -39.775 22.2 -98.3 -51.7 -138.05 -134.5 -190.8 -163.35 -209.15 -193.25 -229.1 -202.746484375 -220.9484375 -211.85 -211.85 -299.55 -124.1 -299.55 0 -299.55 41.4822265625 -289.75 78.9 -218.1 124.1 -154.65 136.45 -154.55 136.45 -154.5 136.45 -154.45 136.45 -154.35 136.5 -74.2 151.95 -7.05 115 71.94375 64.317578125 145.8 105.6 160.5318359375 89.403515625 173.6 71.45 75.622265625 55.948828125 17.65 -26.3 81.5630859375 33.6607421875 184.45 55.9 204.6171875 25.501953125 220.4 -9.5
M -203.05 -99.75
Q -200.1591796875 -101.1 -196.75 -101.1 -190.3 -101.1 -185.75 -96.15 -181.15 -91.15 -181.15 -84.1 -181.15 -77.05 -185.75 -72.1 -190.3 -67.1 -196.75 -67.1 -203.2 -67.1 -207.8 -72.1 -209.0568359375 -73.4673828125 -210 -75 -212.35 -78.9974609375 -212.35 -84.1 -212.35 -91.15 -207.8 -96.15 -205.63125 -98.48359375 -203.05 -99.75
M -58.2 -85.15
Q -53.6 -80.15 -53.6 -73.1 -53.6 -72.0662109375 -53.7 -71.1 -54.274609375 -65.32421875 -58.2 -61.1 -62.75 -56.1 -69.2 -56.1 -75.65 -56.1 -80.25 -61.1 -84.8 -66.05 -84.8 -73.1 -84.8 -80.15 -80.25 -85.15 -75.65 -90.1 -69.2 -90.1 -62.9974609375 -90.1 -58.55 -85.55 -58.374609375 -85.33984375 -58.2 -85.15
M -173.25 -21.9
Q -147.25 -9.5 -113.8 -22.85 -147.25 -9.5 -173.25 -21.9
M 251.2 -97.2
Q 257.5251953125 -120.9525390625 262.3 -146.3 242.35 -181.3 211.8 -211.85 124.1 -299.55 0 -299.55 -86.866015625 -299.55 -155.95 -256.6 -155.6078125 -256.759375 -155.3 -256.95 32.0595703125 -144.3048828125 251.2 -97.2 Z"/>

<path fill="#B68245" stroke="none" d="
M -155.65 144
L -156 144.7
Q -89.8 194.1 -5.65 161.35 -91.1 177.1 -155.65 144
M 42.5 187.15
Q 48.749609375 191.4693359375 56.25 195.9 49.6341796875 190.8302734375 44.6 186 9.01796875 151.5345703125 55.05 128.65 88.6 118.75 104.45 134.45 75.45 102.15 42.25 115.6 -17.4638671875 145.5927734375 42.5 187.15
M 179.8 176.45
Q 183.1484375 182.0158203125 185.35 187.6 184.490234375 180.2427734375 182.6 173.45 172.6515625 137.36171875 133.95 118.05 112.4408203125 107.3328125 82.05 101.8 106.7162109375 113.9111328125 125.7 126.1 164.587109375 151.08125 179.8 176.45
M 292.25 68.6
L 292.25 68.55
Q 272.7470703125 67.8890625 254.25 66.25 217.356640625 63.0068359375 184.45 55.9 81.5630859375 33.6607421875 17.65 -26.3 75.622265625 55.948828125 173.6 71.45 209.4103515625 77.1552734375 250.55 73.9 270.762109375 72.333203125 292.25 68.6 Z"/>

<path fill="#77411A" stroke="none" d="
M -155.65 144
L -154.35 136.5
Q -154.45 136.45 -154.5 136.45
L -156 144.7 -155.65 144
M 62.15 142.2
L 61.9 143.3
Q 81.8400390625 148.956640625 92.75 154.25 114.508203125 164.85546875 100.25 174.05 83.1216796875 181.2578125 70.55 170.05 66.9119140625 166.8416015625 63.65 162.05
L 63.05 162.4
Q 65.526953125 167.4876953125 68 171.75 94.14921875 217.000390625 119.55 170.95 121.55 154.2 105.15 147.15 104.0634765625 146.6822265625 102.9 146.25 88.5919921875 141.0443359375 62.15 142.2
M 299.55 -2
Q 290.741796875 -4.1521484375 282.05 -6.4 253.2666015625 -13.694140625 225.7 -21.7 113.7068359375 -54.3267578125 22.2 -98.3 131.0255859375 -39.775 220.4 -9.5 250.07265625 0.578515625 277.6 7.5 288.6376953125 10.315234375 299.3 12.6
L 299.35 12.6
Q 299.375 11.81875 299.35 11
L 299.55 0
Q 299.55 -1.001171875 299.55 -2 Z"/>

<path fill="#551F0E" stroke="none" d="
M 239.05 181
Q 197.0677734375 202.1416015625 144 209.05 59.4416015625 276.2748046875 -66.45 292.7 -34.65 299.55 0 299.55 124.1 299.55 211.8 211.8 226.68671875 196.9220703125 239.05 181
M 292.25 68.6
Q 270.762109375 72.333203125 250.55 73.9 230.190234375 115.3259765625 203.6 149.05 227.5451171875 164.69921875 251.25 164.1 280.7591796875 120.0955078125 292.25 68.6
M 299.3 12.6
Q 288.6376953125 10.315234375 277.6 7.5 267.2736328125 38.5498046875 254.25 66.25 272.7470703125 67.8890625 292.25 68.55 298.255859375 41.596875 299.3 12.6 Z"/>

<path fill="#642813" stroke="none" d="
M 144 209.05
Q 82.0880859375 217.1578125 5.05 205.85 -44.945703125 228.090625 -104.15 240.65 -50.399609375 257.6861328125 17.1 269 -57.2 278 -133.8 269 -101.9015625 285.1033203125 -66.45 292.7 59.4416015625 276.2748046875 144 209.05
M 189.1 138.15
Q 196.3619140625 144.35625 203.6 149.05 230.190234375 115.3259765625 250.55 73.9 209.4103515625 77.1552734375 173.6 71.45 160.5318359375 89.403515625 145.8 105.6 167.6708984375 117.841015625 189.1 138.15
M 254.25 66.25
Q 267.2736328125 38.5498046875 277.6 7.5 250.07265625 0.578515625 220.4 -9.5 204.6171875 25.501953125 184.45 55.9 217.356640625 63.0068359375 254.25 66.25
M 251.2 -97.2
Q 261.45625 -95.0046875 271.75 -92.95 279.1294921875 -91.5041015625 286.55 -90.1 277.537109375 -119.4927734375 262.3 -146.3 257.5251953125 -120.9525390625 251.2 -97.2 Z"/>

<path fill="#8B5224" stroke="none" d="
M 239.05 181
Q 239.5279296875 180.3890625 240 179.75 242.476953125 176.540234375 244.85 173.25
L 249.7 166.4
Q 250.5103515625 165.2640625 251.3 164.1
L 251.25 164.1
Q 227.5451171875 164.69921875 203.6 149.05 196.3619140625 144.35625 189.1 138.15 167.6708984375 117.841015625 145.8 105.6 71.94375 64.317578125 -7.05 115 -74.2 151.95 -154.35 136.5
L -155.65 144
Q -91.1 177.1 -5.65 161.35 -89.8 194.1 -156 144.7
L -154.5 136.45
Q -154.55 136.45 -154.65 136.45 -218.1 124.1 -289.75 78.9 -289.45703125 80.040234375 -289.15 81.15 -289.0763671875 81.446875 -289 81.7 -288.93359375 81.968359375 -288.9 82.2 -288.8140625 82.4216796875 -288.75 82.65 -288.67890625 82.9068359375 -288.6 83.15 -288.5306640625 83.4240234375 -288.45 83.65 -288.3017578125 84.2037109375 -288.15 84.7 -282.092578125 106.0068359375 -272.8 125.95
L -188.55 155.55
Q -82.084765625 193.11484375 5.05 205.85 82.0880859375 217.1578125 144 209.05 197.0677734375 202.1416015625 239.05 181
M 185.35 187.6
Q 183.1484375 182.0158203125 179.8 176.45 164.587109375 151.08125 125.7 126.1 106.7162109375 113.9111328125 82.05 101.8 112.4408203125 107.3328125 133.95 118.05 172.6515625 137.36171875 182.6 173.45 184.490234375 180.2427734375 185.35 187.6
M 61.9 143.3
L 62.15 142.2
Q 88.5919921875 141.0443359375 102.9 146.25 104.0634765625 146.6822265625 105.15 147.15 121.55 154.2 119.55 170.95 94.14921875 217.000390625 68 171.75 65.526953125 167.4876953125 63.05 162.4
L 63.65 162.05
Q 66.9119140625 166.8416015625 70.55 170.05 83.1216796875 181.2578125 100.25 174.05 114.508203125 164.85546875 92.75 154.25 81.8400390625 148.956640625 61.9 143.3
M 56.25 195.9
Q 48.749609375 191.4693359375 42.5 187.15 -17.4638671875 145.5927734375 42.25 115.6 75.45 102.15 104.45 134.45 88.6 118.75 55.05 128.65 9.01796875 151.5345703125 44.6 186 49.6341796875 190.8302734375 56.25 195.9
M 147 175.9
L 147.05 175.95
Q 160.35 201.95 119.05 196.6 142.7 193.3 147 175.95
L 147 175.9
M 294.95 -55.05
Q 293.995703125 -60.5025390625 292.85 -65.9
L 287.45 -87.1
Q 287.0525390625 -88.61171875 286.6 -90.1
L 286.55 -90.1
Q 279.1294921875 -91.5041015625 271.75 -92.95
L 271.35 -90.9
Q 260.5185546875 -91.2431640625 249.75 -91.8 41.290234375 -102.453125 -134.5 -190.8 -51.7 -138.05 22.2 -98.3 113.7068359375 -54.3267578125 225.7 -21.7 253.2666015625 -13.694140625 282.05 -6.4 290.741796875 -4.1521484375 299.55 -2 299.3884765625 -29.4326171875 294.95 -55.05 Z"/>

<path fill="#77341A" stroke="none" d="
M 147.05 175.95
L 147 175.9 147 175.95
Q 142.7 193.3 119.05 196.6 160.35 201.95 147.05 175.95 Z"/>

<path fill="#000000" stroke="none" d="
M -53.6 -73.1
Q -53.6 -80.15 -58.2 -85.15 -58.374609375 -85.33984375 -58.55 -85.55 -62.9974609375 -90.1 -69.2 -90.1 -75.65 -90.1 -80.25 -85.15 -84.8 -80.15 -84.8 -73.1 -84.8 -66.05 -80.25 -61.1 -75.65 -56.1 -69.2 -56.1 -62.75 -56.1 -58.2 -61.1 -54.274609375 -65.32421875 -53.7 -71.1 -53.6 -72.0662109375 -53.6 -73.1
M -196.75 -101.1
Q -200.1591796875 -101.1 -203.05 -99.75 -205.63125 -98.48359375 -207.8 -96.15 -212.35 -91.15 -212.35 -84.1 -212.35 -78.9974609375 -210 -75 -209.0568359375 -73.4673828125 -207.8 -72.1 -203.2 -67.1 -196.75 -67.1 -190.3 -67.1 -185.75 -72.1 -181.15 -77.05 -181.15 -84.1 -181.15 -91.15 -185.75 -96.15 -190.3 -101.1 -196.75 -101.1 Z"/>
</g>

<g id="Jupiter_Self_0_Layer0_0_FILL">
<path fill="#C49655" stroke="none" d="
M -192 -156.4
Q -191.25 -170.30546875 -200.4 -176.6 -209.447265625 -182.8982421875 -219.95 -177.4 -230.4587890625 -171.8556640625 -238.45 -159.45 -246.39140625 -147.04453125 -248.2 -135.75 -249.9529296875 -124.451953125 -240.9 -118.15 -231.7501953125 -111.8447265625 -220.3 -115.3 -208.8498046875 -118.7162109375 -200.8 -130.6 -192.700390625 -142.483984375 -192 -156.4 Z"/>

<path fill="#FFFFFF" fill-opacity="0.06666666666666667" stroke="none" d="
M -343.65 -35.4
Q -487.05 -53.4 -490.05 -38.5 -493.15 -23.6 -354.45 19.2 -215.85 62.05 -16.05 103.05 183.65 143.95 327.65 157.8 471.7 171.6 474.7 156.7 477.7 141.8 338.55 102.6 314.9 95.95 289.45 89.25
L 289.7 103.3
Q 296.05 104.8 302.25 106.3 428.15 137.1 426.7 144.3 425.15 151.55 297.25 130.95 169.4 110.45 -10 74.15 -189.5 37.85 -315.35 7 -441.2 -23.7 -439.75 -30.95 -438.2 -38.2 -310.4 -17.6 -304.2 -16.6 -297.9 -15.55
L -297.85 -16.1 -292.2 -28.45
Q -318.85 -32.25 -343.65 -35.4 Z"/>
</g>

<path id="Jupiter_Self_0_Layer1_0_1_STROKES" stroke="#000000" stroke-width="5" stroke-linejoin="round" stroke-linecap="round" fill="none" d="
M 292.25 68.55
Q 292.340625 68.55 292.4 68.55 292.2974609375 68.5525390625 292.25 68.6
M 147 175.9
L 147 175.95
M -173.25 -21.9
Q -147.25 -9.5 -113.8 -22.85"/>
</defs>

<g transform="matrix( 0.3114013671875, 0, 0, 0.3114013671875, 152.6,145) ">
<g transform="matrix( 1, 0, 0, 1, 0,0) ">
<use xlink:href="#Jupiter_Self_0_Layer1_0_FILL"/>

<use xlink:href="#Jupiter_Self_0_Layer1_0_1_STROKES"/>
</g>

<g transform="matrix( 1, 0, 0, 1, 0,0) ">
<use xlink:href="#Jupiter_Self_0_Layer0_0_FILL"/>
</g>
</g>
</svg>
