
<svg xmlns="http://www.w3.org/2000/svg" version="1.1" xmlns:xlink="http://www.w3.org/1999/xlink" preserveAspectRatio="none" x="0px" y="0px" width="300px" height="300px" viewBox="0 0 300 300">
<defs>
<g id="Layer5_0_FILL">
<path fill="#FFFFFF" fill-opacity="0.06666666666666667" stroke="none" d="
M 165.7 179.1
Q 173.45 180.6 180.85 181.95 187 183.05 193 184.1 197.05 184.75 201.05 185.45 206.05 186.2 210.95 187 213.45 187.35 215.95 187.7 224.05 188.9 231.75 189.9 242.5 191.25 252.4 192.2 296.4 196.45 297.35 191.9 298.2 187.35 255.7 175.35 248.5 173.35 240.75 171.3
L 240.8 175.55
Q 242.75 176 244.65 176.5 283.1 185.9 282.65 188.1 282.15 190.3 243.1 184.05 239.35 183.45 235.55 182.8 228.55 181.65 221.1 180.35 209.6 178.35 197.05 176 196.55 175.85 195.95 175.75 183.95 173.5 170.9 171 160.35 168.9 149.2 166.65 97.8 156.25 60.8 147.35 58.3 146.75 55.95 146.15 17.45 136.75 17.9 134.55 18.4 132.35 57.45 138.6 59.15 138.9 60.9 139.2
L 60.95 139 61.1 135.05 61.15 135.05
Q 54 134.05 47.3 133.2 3.45 127.65 2.55 132.25 1.6 136.8 44 149.9 52.3 152.45 61.35 155.05 98.35 165.45 147.35 175.45 150.7 176.15 154.1 176.85 159.95 178 165.7 179.1 Z"/>

<path fill="#723518" stroke="none" d="
M 237.1 146.3
Q 228.7 144.2 219.65 141.15 192.3 131.85 159.05 113.95 136.45 101.85 111.2 85.7 102.4 80.1 93.25 74.05 90.3 76.5 87.55 79.3 63.95 102.85 61.15 135.05
L 61.1 135.05 60.95 139 60.9 139.2 60.9 139.2
Q 60.75 141.560546875 60.75 144 60.75 145.65 60.8 147.35 97.8 156.25 149.2 166.65 160.35 168.9 170.9 171 183.65 169.2 195.95 175.75 196.55 175.85 197.05 176 209.6 178.35 221.1 180.35 228.55 181.65 235.55 182.8 239.45 174.3 241.55 164.95 235 166.15 228.8 166.6 216.25 167.6 205.35 165.85 175.4 161.1 157.7 136 177.2 154.25 208.65 161.1 218.7 163.25 229.95 164.25 235.65 164.75 241.55 164.95 243.4 156.7 243.75 147.85 240.5 147.15 237.1 146.3
M 68.9 182.45
Q 71.8 188.7 75.75 194.5
L 76.1 194.25
Q 91.95 208.55 120.45 217.55 136.85 222.75 157.5 226.2 134.8 228.95 111.4 226.2 121.15 231.1 131.95 233.45 141.7 235.55 152.3 235.55 190.2 235.55 217 208.75 221.55 204.15 225.3 199.3 212.5 205.75 196.3 207.9 177.35 210.35 153.85 206.95 127.2 203 94.65 191.5
L 68.9 182.45
M 229.05 114.3
Q 232.2 114.95 235.3 115.6 237.6 116.05 239.8 116.5 237.1 107.5 232.4 99.3 226.35 88.6 217 79.3 190.2 52.5 152.3 52.5 125.7 52.5 104.6 65.6 104.7 65.55 104.8 65.5 162.05 99.9 229.05 114.3
M 61.35 155.05
Q 62.05 161.75 63.75 168.15 85.65 181.95 105 185.7
L 105.05 185.7
Q 105.1 185.7 105.1 185.75 129.6 190.45 150.15 179.15 152.1 177.9 154.1 176.85 150.7 176.15 147.35 175.45 98.35 165.45 61.35 155.05
M 215.95 187.7
Q 215.2 188.65 214.5 189.55 221.8 194.35 229.05 194.15 230.5 192.05 231.75 189.9 224.05 188.9 215.95 187.7 Z"/>

<path fill="#B68245" stroke="none" d="
M 228.8 166.6
Q 235 166.15 241.55 164.95 235.65 164.75 229.95 164.25 218.7 163.25 208.65 161.1 177.2 154.25 157.7 136 175.4 161.1 205.35 165.85 216.25 167.6 228.8 166.6
M 104.7 188
L 104.6 188.2
Q 124.85 203.35 150.6 193.3 124.45 198.15 104.7 188
M 201.05 185.45
Q 197.05 184.75 193 184.1 203 190.95 207.25 197.95 208.25 199.6 208.95 201.35 208.65 199.1 208.1 197 206.2 190.25 201.05 185.45
M 180.85 181.95
Q 173.45 180.6 165.7 179.1 165.4 179.2 165.15 179.3 146.95 188.5 165.25 201.2 167.15 202.5 169.45 203.85 167.45 202.3 165.95 200.85 155.05 190.3 169.1 183.3 179.35 180.3 184.2 185.1 182.55 183.3 180.85 181.95 Z"/>

<path fill="#8B5224" stroke="none" d="
M 165.15 179.3
Q 165.4 179.2 165.7 179.1 159.95 178 154.1 176.85 152.1 177.9 150.15 179.15 129.6 190.45 105.1 185.75
L 104.7 188
Q 124.45 198.15 150.6 193.3 124.85 203.35 104.6 188.2
L 105.05 185.7 105 185.7
Q 85.65 181.95 63.75 168.15 63.8 168.45 63.9 168.8 63.95 168.9 63.95 169 64 169.05 64 169.1 64 169.2 64.05 169.25 64.05 169.35 64.1 169.45 64.1 169.5 64.15 169.6 64.2 169.75 64.25 169.9 66.1 176.4 68.9 182.45
L 94.65 191.5
Q 127.2 203 153.85 206.95 177.35 210.35 196.3 207.9 212.5 205.75 225.3 199.3 225.45 199.1 225.6 198.95 226.4 197.95 227.05 196.95
L 228.6 194.85
Q 228.8 194.5 229.05 194.15 221.8 194.35 214.5 189.55 212.7 188.4 210.95 187 206.05 186.2 201.05 185.45 206.2 190.25 208.1 197 208.65 199.1 208.95 201.35 208.25 199.6 207.25 197.95 203 190.95 193 184.1 187 183.05 180.85 181.95 182.55 183.3 184.2 185.1 179.35 180.3 169.1 183.3 155.05 190.3 165.95 200.85 167.45 202.3 169.45 203.85 167.15 202.5 165.25 201.2 146.95 188.5 165.15 179.3
M 171.2 187.75
L 171.25 187.45
Q 179.35 187.1 183.75 188.7 184.1 188.85 184.4 189 189.45 191.15 188.8 196.25 181.05 210.3 173.05 196.5 172.3 195.15 171.55 193.6
L 171.75 193.5
Q 172.7 194.95 173.8 196 177.65 199.4 182.9 197.2 187.25 194.4 180.65 191.15 177.25 189.5 171.2 187.75
M 197.2 197.75
Q 201.25 205.7 188.65 204.05 195.9 203.05 197.2 197.75
M 170.9 171
Q 183.95 173.5 195.95 175.75 183.65 169.2 170.9 171
M 240.1 117.4
Q 240 116.9 239.85 116.5
L 239.8 116.5
Q 237.6 116.05 235.3 115.6
L 235.2 116.25
Q 231.9 116.15 228.6 115.95 164.85 112.7 111.2 85.7 136.45 101.85 159.05 113.95 187 127.4 221.25 137.4 229.65 139.8 238.45 142.05 241.15 142.75 243.8 143.35 243.75 135 242.4 127.2 242.1 125.55 241.75 123.85
L 240.1 117.4 Z"/>

<path fill="#77341A" stroke="none" d="
M 188.65 204.05
Q 201.25 205.7 197.2 197.75 195.9 203.05 188.65 204.05 Z"/>

<path fill="#77411A" stroke="none" d="
M 171.25 187.45
L 171.2 187.75
Q 177.25 189.5 180.65 191.15 187.25 194.4 182.9 197.2 177.65 199.4 173.8 196 172.7 194.95 171.75 193.5
L 171.55 193.6
Q 172.3 195.15 173.05 196.5 181.05 210.3 188.8 196.25 189.45 191.15 184.4 189 184.1 188.85 183.75 188.7 179.35 187.1 171.25 187.45
M 219.65 141.15
Q 228.7 144.2 237.1 146.3 240.5 147.15 243.75 147.85 243.75 147.6 243.75 147.35
L 243.8 144
Q 243.8 143.7 243.8 143.35 241.15 142.75 238.45 142.05 229.65 139.8 221.25 137.4 187 127.4 159.05 113.95 192.3 131.85 219.65 141.15
M 105.1 185.75
Q 105.1 185.7 105.05 185.7
L 104.6 188.2 104.7 188 105.1 185.75 Z"/>

<path fill="#A77438" stroke="none" d="
M 235.3 115.6
Q 232.2 114.95 229.05 114.3 162.05 99.9 104.8 65.5 104.7 65.55 104.6 65.6
L 93.25 74.05
Q 102.4 80.1 111.2 85.7 164.85 112.7 228.6 115.95 231.9 116.15 235.2 116.25
L 235.3 115.6
M 76.1 194.25
L 75.75 194.5
Q 80.8 201.95 87.55 208.75 94.35 215.55 101.9 220.6 106.5 223.75 111.4 226.2 134.8 228.95 157.5 226.2 136.85 222.75 120.45 217.55 91.95 208.55 76.1 194.25 Z"/>

<path fill="#642813" stroke="none" d="
M 215.95 187.7
Q 213.45 187.35 210.95 187 212.7 188.4 214.5 189.55 215.2 188.65 215.95 187.7 Z"/>
</g>
</defs>

<g transform="matrix( 1, 0, 0, 1, 0,0) ">
<use xlink:href="#Layer5_0_FILL"/>
</g>
</svg>
