
<svg xmlns="http://www.w3.org/2000/svg" version="1.1" xmlns:xlink="http://www.w3.org/1999/xlink" preserveAspectRatio="none" x="0px" y="0px" width="300px" height="300px" viewBox="0 0 300 300">
<defs>
<g id="Mars_Self_0_Layer1_0_FILL">
<path fill="#521309" stroke="none" d="
M 268.4 -13.9
Q 265.85 -8.15 263.25 -2.45 233.05 63.15 191 113.8 189.15 111.25 186.9 108.85 174.85 96.05 157.75 96.05 140.65 96.05 128.55 108.85 116.5 121.7 116.5 139.8 116.5 157.9 128.55 170.7 129.85 172.1 131.25 173.35 96.25 202.1 55.4 223.55 34.8 207.7 6.2 207.7 -23.65 207.7 -44.75 224.9 -63.55 240.25 -65.6 261.2 -58.35 262.95 -50.95 264.3 -26.4 268.7 0 268.7 41 268.7 77.6 258.05 127.75 243.35 169.6 208.7 169.75 208.5 169.95 208.4 170.1 208.2 170.3 208.05 170.55 207.85 170.8 207.65 171 207.45 171.25 207.25 171.45 207.05 171.7 206.85 172.25 206.4 172.8 205.95 173.35 205.45 173.9 205 174.45 204.5 175 204.05 175.25 203.8 175.55 203.55 175.8 203.35 176.05 203.15 176.3 202.85 176.6 202.65 176.85 202.4 177.1 202.2 177.3 202 177.55 201.8 177.75 201.6 177.95 201.4 178.2 201.2 178.45 201 178.7 200.75 178.95 200.5 179.55 200 180.1 199.45 180.45 199.15 180.8 198.85 181 198.6 181.25 198.4 181.5 198.15 181.8 197.95 182.15 197.6 182.5 197.3 182.75 197.05 183 196.8 183.2 196.6 183.4 196.45 183.6 196.25 183.8 196.05 184 195.85 184.25 195.65 184.55 195.35 184.85 195.1 185.05 194.85 185.3 194.65 185.5 194.45 185.7 194.25 185.95 194 186.2 193.75 186.45 193.5 186.7 193.3 186.9 193 187.2 192.8 187.45 192.55 187.7 192.3 187.95 192.05 188.2 191.85 188.45 191.55 188.75 191.3 189 191 189.3 190.75 189.65 190.35 190 190 268.7 111.3 268.7 0 268.7 -7.05 268.4 -13.9
M 240.95 -29.9
Q 233.9 -37.2 223.9 -37.2 213.9 -37.2 206.8 -29.9 199.75 -22.55 199.75 -12.2 199.75 -1.85 206.8 5.45 213.9 12.8 223.9 12.8 233.9 12.8 240.95 5.45 248.05 -1.85 248.05 -12.2 248.05 -22.55 240.95 -29.9
M -134.9 197.25
Q -134.9 190.85 -139.9 186.3 -144.9 181.8 -152 181.8 -159.1 181.8 -164.1 186.3 -169.1 190.85 -169.1 197.25 -169.1 203.65 -164.1 208.15 -159.1 212.7 -152 212.7 -144.9 212.7 -139.9 208.15 -134.9 203.65 -134.9 197.25 Z"/>

<path fill="#5E1B0E" stroke="none" d="
M 146.9 -41.3
Q 126.35 -41.3 111.85 -24.5 97.35 -7.65 97.35 16.15 97.35 39.95 111.85 56.75 113.2 58.35 114.65 59.8 63.15 114.8 6.2 152.85 -2.8 146.05 -15.05 146.05 -28.5 146.05 -38.05 154.2 -47.55 162.4 -47.55 173.95 -47.55 179 -45.75 183.4 -96.3 209.3 -150.8 222.9 -111.55 250.15 -65.6 261.2 -63.55 240.25 -44.75 224.9 -23.65 207.7 6.2 207.7 34.8 207.7 55.4 223.55 96.25 202.1 131.25 173.35 129.85 172.1 128.55 170.7 116.5 157.9 116.5 139.8 116.5 121.7 128.55 108.85 140.65 96.05 157.75 96.05 174.85 96.05 186.9 108.85 189.15 111.25 191 113.8 233.05 63.15 263.25 -2.45 265.85 -8.15 268.4 -13.9 265.85 -70 242.55 -117.5 230.6 -96.55 218.25 -76.8 218.2 -76.85 218.15 -76.9 213.15 -81.3 206.05 -81.3 198.95 -81.3 193.95 -76.9 188.95 -72.5 188.95 -66.3 188.95 -60.1 193.95 -55.7 197.5 -52.6 202.05 -51.65 192.5 -37.3 182.7 -23.6 182.35 -24.05 181.95 -24.5 167.45 -41.3 146.9 -41.3
M 223.9 -37.2
Q 233.9 -37.2 240.95 -29.9 248.05 -22.55 248.05 -12.2 248.05 -1.85 240.95 5.45 233.9 12.8 223.9 12.8 213.9 12.8 206.8 5.45 199.75 -1.85 199.75 -12.2 199.75 -22.55 206.8 -29.9 213.9 -37.2 223.9 -37.2
M -60.3 95.1
Q -47.9 81.55 -47.9 62.4 -47.9 43.25 -60.3 29.7 -72.7 16.15 -90.25 16.15 -107.8 16.15 -120.2 29.7 -132.6 43.25 -132.6 62.4 -132.6 81.55 -120.2 95.1 -107.8 108.65 -90.25 108.65 -72.7 108.65 -60.3 95.1
M 191.05 -157.95
Q 182.25 -157.95 176 -151.75 169.8 -145.5 169.8 -136.7 169.8 -127.9 176 -121.7 182.25 -115.45 191.05 -115.45 199.85 -115.45 206.05 -121.7 212.3 -127.9 212.3 -136.7 212.3 -145.5 206.05 -151.75 199.85 -157.95 191.05 -157.95 Z"/>

<path fill="#6B2313" stroke="none" d="
M 111.85 -24.5
Q 126.35 -41.3 146.9 -41.3 167.45 -41.3 181.95 -24.5 182.35 -24.05 182.7 -23.6 192.5 -37.3 202.05 -51.65 197.5 -52.6 193.95 -55.7 188.95 -60.1 188.95 -66.3 188.95 -72.5 193.95 -76.9 198.95 -81.3 206.05 -81.3 213.15 -81.3 218.15 -76.9 218.2 -76.85 218.25 -76.8 230.6 -96.55 242.55 -117.5 223.3 -156.7 190 -190 111.3 -268.7 0 -268.7 -111.3 -268.7 -190 -190 -268.7 -111.3 -268.7 0 -268.7 111.3 -190 190 -171.35 208.65 -150.8 222.9 -96.3 209.3 -45.75 183.4 -47.55 179 -47.55 173.95 -47.55 162.4 -38.05 154.2 -28.5 146.05 -15.05 146.05 -2.8 146.05 6.2 152.85 63.15 114.8 114.65 59.8 113.2 58.35 111.85 56.75 97.35 39.95 97.35 16.15 97.35 -7.65 111.85 -24.5
M 10.55 -99
Q 10.55 -91.35 6.95 -85.95 3.4 -80.5 -1.65 -80.5 -6.7 -80.5 -10.3 -85.95 -13.85 -91.35 -13.85 -99 -13.85 -106.65 -10.3 -112.1 -6.7 -117.5 -1.65 -117.5 3.4 -117.5 6.95 -112.1 10.55 -106.65 10.55 -99
M 176 -151.75
Q 182.25 -157.95 191.05 -157.95 199.85 -157.95 206.05 -151.75 212.3 -145.5 212.3 -136.7 212.3 -127.9 206.05 -121.7 199.85 -115.45 191.05 -115.45 182.25 -115.45 176 -121.7 169.8 -127.9 169.8 -136.7 169.8 -145.5 176 -151.75
M -206.15 -105.6
Q -215.2 -112.5 -214.2 -127.05 -213.15 -141.6 -202.7 -155.3 -192.2 -169.05 -178.45 -173.85 -164.65 -178.65 -155.6 -171.75 -146.6 -164.9 -147.65 -150.3 -148.65 -135.8 -159.15 -122.05 -169.6 -108.35 -183.4 -103.5 -197.15 -98.75 -206.15 -105.6
M -125.8 -100.15
Q -125.8 -107.8 -122.25 -113.25 -118.65 -118.65 -113.6 -118.65 -108.55 -118.65 -105 -113.25 -101.4 -107.8 -101.4 -100.15 -101.4 -92.5 -105 -87.1 -108.55 -81.65 -113.6 -81.65 -118.65 -81.65 -122.25 -87.1 -125.8 -92.5 -125.8 -100.15
M -97.25 -40.55
Q -69.9 -5.5 -27.65 -39.7 -69.9 -5.5 -97.25 -40.55
M -47.9 62.4
Q -47.9 81.55 -60.3 95.1 -72.7 108.65 -90.25 108.65 -107.8 108.65 -120.2 95.1 -132.6 81.55 -132.6 62.4 -132.6 43.25 -120.2 29.7 -107.8 16.15 -90.25 16.15 -72.7 16.15 -60.3 29.7 -47.9 43.25 -47.9 62.4
M -139.9 186.3
Q -134.9 190.85 -134.9 197.25 -134.9 203.65 -139.9 208.15 -144.9 212.7 -152 212.7 -159.1 212.7 -164.1 208.15 -169.1 203.65 -169.1 197.25 -169.1 190.85 -164.1 186.3 -159.1 181.8 -152 181.8 -144.9 181.8 -139.9 186.3 Z"/>

<path fill="#000000" stroke="none" d="
M -122.25 -113.25
Q -125.8 -107.8 -125.8 -100.15 -125.8 -92.5 -122.25 -87.1 -118.65 -81.65 -113.6 -81.65 -108.55 -81.65 -105 -87.1 -101.4 -92.5 -101.4 -100.15 -101.4 -107.8 -105 -113.25 -108.55 -118.65 -113.6 -118.65 -118.65 -118.65 -122.25 -113.25
M 6.95 -85.95
Q 10.55 -91.35 10.55 -99 10.55 -106.65 6.95 -112.1 3.4 -117.5 -1.65 -117.5 -6.7 -117.5 -10.3 -112.1 -13.85 -106.65 -13.85 -99 -13.85 -91.35 -10.3 -85.95 -6.7 -80.5 -1.65 -80.5 3.4 -80.5 6.95 -85.95 Z"/>

<path fill="#844425" stroke="none" d="
M -214.2 -127.05
Q -215.2 -112.5 -206.15 -105.6 -197.15 -98.75 -183.4 -103.5 -169.6 -108.35 -159.15 -122.05 -148.65 -135.8 -147.65 -150.3 -146.6 -164.9 -155.6 -171.75 -164.65 -178.65 -178.45 -173.85 -192.2 -169.05 -202.7 -155.3 -213.15 -141.6 -214.2 -127.05 Z"/>
</g>

<g id="Mars_Self_0_Layer0_0_FILL">
<path fill="#965333" stroke="none" d="
M 71.25 259.4
Q 53.6 262.9 43.7 260.5 10.9 252.65 -35.45 246.95 -81.85 241.3 -113.9 238.3 -120.4 237.7 -125.7 237.8 -90.15 257.1 -35.55 268 19.5 274.75 71.25 259.4
M 165.5 -212.65
Q 165.1859375 -212.7115234375 164.85 -212.8 163.96171875 -213.5068359375 163.05 -214.2 161.663671875 -215.170703125 160.45 -216 159.77890625 -216.47109375 159.15 -216.9
L 158.7 -217.35
Q 156.8765625 -217.2501953125 157.15 -217.95 144.2517578125 -227.808203125 129.15 -238.8 114.09765625 -249.7822265625 57.55 -264.2 1.0572265625 -278.56640625 -59.25 -262.3 -119.5130859375 -246.0443359375 -142.2 -228.8 -131.85 -227.85 -102.3 -224.6 -78.663671875 -222.0662109375 -39.25 -222.05 -26.5380859375 -222.044140625 -12.2 -222.3 -5.1 -222.4 1.65 -222.55 50.7 -223.6 80.35 -225.55 113.55 -227.75 175.7 -200.2 176.39609375 -199.921484375 178.35 -201.15 178.5384765625 -201.2458984375 178.7 -201.35 178.463671875 -201.30078125 178.25 -201.25 175.6427734375 -200.762109375 177.65 -201.8 177.7095703125 -201.8298828125 177.75 -201.85 177.5560546875 -201.9673828125 177.35 -202.1 165.7041015625 -209.1025390625 168.7 -209.65 169.1986328125 -209.7283203125 170.05 -209.65
L 168.2 -210.1 165.5 -212.65 Z"/>

<path fill="#6B2313" stroke="none" d="
M 161 -215.8
Q 160.7283203125 -215.8826171875 160.45 -216 161.663671875 -215.170703125 163.05 -214.2 162.03515625 -215.0109375 161 -215.8
M 168.7 -209.65
Q 165.7041015625 -209.1025390625 177.35 -202.1 172.9169921875 -206.1341796875 168.7 -209.65
M 178.25 -201.25
Q 177.96875 -201.53203125 177.65 -201.8 175.6427734375 -200.762109375 178.25 -201.25 Z"/>
</g>

<path id="Mars_Self_0_Layer1_0_1_STROKES" stroke="#000000" stroke-width="5" stroke-linejoin="round" stroke-linecap="round" fill="none" d="
M -97.25 -40.55
Q -69.9 -5.5 -27.65 -39.7"/>
</defs>

<g transform="matrix( 0.54705810546875, 0, 0, 0.54705810546875, 149.65,149.95) ">
<g transform="matrix( 1, 0, 0, 1, 0,0) ">
<use xlink:href="#Mars_Self_0_Layer1_0_FILL"/>

<use xlink:href="#Mars_Self_0_Layer1_0_1_STROKES"/>
</g>

<g transform="matrix( 1, 0, 0, 1, 0,0) ">
<use xlink:href="#Mars_Self_0_Layer0_0_FILL"/>
</g>
</g>
</svg>
