
<svg xmlns="http://www.w3.org/2000/svg" version="1.1" xmlns:xlink="http://www.w3.org/1999/xlink" preserveAspectRatio="none" x="0px" y="0px" width="300px" height="300px" viewBox="0 0 300 300">
<defs>
<g id="Layer6_0_FILL">
<path fill="#6B2313" stroke="none" d="
M 246.5 38.85
Q 245.4408203125 39.5453125 245.05 39.35 210.95 24.25 192.75 25.45 176.45 26.55 149.55 27.1 145.85 27.2 141.95 27.25 134.1 27.4 127.1 27.4 105.5 27.4 92.55 26 76.4869140625 24.220703125 70.75 23.65 56.85 32.514453125 44.4 44.95 1.25 88.15 1.25 149.2 1.25 210.25 44.4 253.45 54.65 263.65 65.9 271.5 87.45 286.45 112.65 292.5 112.655859375 292.4419921875 112.65 292.35 93.5466796875 287.176953125 79.7 279.65 82.6 279.6 86.15 279.95 98.7578125 281.13203125 115.4 283.05 121.98125 283.820703125 129.2 284.7 154.65 287.8 172.65 292.1 178.05 293.45 187.75 291.5 184.6384765625 292.42578125 181.5 293.2 186.4224609375 292.1439453125 191.2 290.75 218.75 282.7 241.7 263.7 241.8 263.6 241.9 263.55 241.95 263.4 242.1 263.35 242.2 263.25 242.35 263.1 242.45 263 242.6 262.9 242.7 262.8 242.85 262.7 243.15 262.45 243.45 262.2 243.75 261.9 244.05 261.65 244.35 261.4 244.65 261.15 244.8 261 244.95 260.85 245.1 260.75 245.25 260.65 245.35 260.5 245.55 260.4 245.7 260.25 245.8 260.15 245.9 260 246.05 259.9 246.15 259.8 246.3 259.7 246.4 259.6 246.55 259.45 246.7 259.35 246.85 259.2 247.15 258.95 247.45 258.6 247.65 258.45 247.85 258.3 247.95 258.15 248.1 258.05 248.25 257.9 248.4 257.8 248.6 257.6 248.75 257.45 248.9 257.3 249.05 257.15 249.15 257.05 249.25 257 249.4 256.85 249.5 256.75 249.6 256.65 249.75 256.55 249.9 256.35 250.05 256.25 250.15 256.1 250.3 256 250.4 255.9 250.55 255.75 250.65 255.65 250.8 255.5 250.95 255.35 251.1 255.25 251.2 255.1 251.35 255 251.5 254.85 251.65 254.7 251.75 254.55 251.9 254.45 252.05 254.3 252.2 254.15 252.35 254 252.5 253.85 252.7 253.65 252.9 253.45 296.05 210.25 296.05 149.2 296.05 145.35 295.9 141.55 294.5 110.8 281.7 84.75 271.15 63.25 252.9 44.95 249.7478515625 41.8013671875 246.5 38.85
M 258.25 142.5
Q 258.25 136.85 262.1 132.8 266 128.8 271.5 128.8 276.95 128.8 280.85 132.8 284.75 136.85 284.75 142.5 284.75 148.2 280.85 152.2 276.95 156.2 271.5 156.2 266 156.2 262.1 152.2 258.25 148.2 258.25 142.5
M 261.7 65.95
Q 265.1 69.35 265.1 74.2 265.1 79.05 261.7 82.45 258.3 85.85 253.45 85.85 248.65 85.85 245.2 82.45 241.8 79.05 241.8 74.2 241.8 69.35 245.2 65.95 248.65 62.55 253.45 62.55 258.3 62.55 261.7 65.95
M 74.65 257.4
Q 74.65 260.95 71.9 263.4 69.15 265.9 65.25 265.9 61.35 265.9 58.6 263.4 55.9 260.95 55.9 257.4 55.9 253.9 58.6 251.4 61.35 248.95 65.25 248.95 69.15 248.95 71.9 251.4 74.65 253.9 74.65 257.4
M 189.45 257.05
Q 196.45 257.05 201.4 261.85 206.35 266.65 206.35 273.4 206.35 280.15 201.4 284.95 196.45 289.75 189.45 289.75 182.45 289.75 177.5 284.95 172.55 280.15 172.55 273.4 172.55 266.65 177.5 261.85 182.45 257.05 189.45 257.05
M 264.7 229.95
Q 264.7 239.5 258.55 246.25 252.4 253 243.7 253 235 253 228.85 246.25 222.7 239.5 222.7 229.95 222.7 220.4 228.85 213.65 235 206.9 243.7 206.9 252.4 206.9 258.55 213.65 264.7 220.4 264.7 229.95
M 128.25 177.2
Q 138.15 177.2 145.15 184.2 152.15 191.2 152.15 201.1 152.15 211 145.15 218 138.15 225 128.25 225 118.35 225 111.35 218 104.35 211 104.35 201.1 104.35 191.2 111.35 184.2 118.35 177.2 128.25 177.2
M 230.25 197.6
Q 222.5 197.6 217.05 192.3 211.6 187 211.6 179.5 211.6 172 217.05 166.7 222.5 161.4 230.25 161.4 238 161.4 243.45 166.7 248.9 172 248.9 179.5 248.9 187 243.45 192.3 238 197.6 230.25 197.6
M 134.05 259.45
Q 134.05 261.6 132.5 263.15 130.95 264.7 128.8 264.7 126.65 264.7 125.1 263.15 123.55 261.6 123.55 259.45 123.55 257.3 125.1 255.75 126.65 254.2 128.8 254.2 130.95 254.2 132.5 255.75 134.05 257.3 134.05 259.45
M 80.85 39.9
Q 80.85 41.55 79.25 42.7 77.7 43.9 75.45 43.9 73.2 43.9 71.6 42.7 70.05 41.55 70.05 39.9 70.05 38.25 71.6 37.05 73.2 35.9 75.45 35.9 77.7 35.9 79.25 37.05 80.85 38.25 80.85 39.9
M 253.15 96.55
Q 254.6 96.55 255.6 97.7 256.6 98.85 256.6 100.45 256.6 102.05 255.6 103.2 254.6 104.35 253.15 104.35 251.7 104.35 250.7 103.2 249.7 102.05 249.7 100.45 249.7 98.85 250.7 97.7 251.7 96.55 253.15 96.55
M 116.15 5.3
Q 117.739453125 4.87265625 119.3 4.45 101.9076171875 7.797265625 86.15 15.2 98.0939453125 10.1623046875 116.15 5.3
M 237 30.85
Q 236.85 30.75 236.7 30.7 237.35 31.15 238.1 31.7 237.55 31.25 237 30.85
M 234.85 29.65
Q 234.75390625 29.9865234375 235.6 29.95 232.8677734375 27.8890625 230.05 25.95 232.51484375 27.844921875 234.85 29.65
M 246.15 38.5
Q 246.1271484375 38.5109375 246.1 38.5 245.03984375 39.0396484375 246.4 38.8
L 246.45 38.8
Q 246.3 38.6 246.15 38.5
M 245.7 38.15
Q 245.8498046875 38.2603515625 246 38.35 243.5 36.1 241.25 34.2 241.1623046875 34.2154296875 241.1 34.25 239.9123046875 34.6875 245.7 38.15 Z"/>

<path fill="#5E1B0E" stroke="none" d="
M 255.6 97.7
Q 254.6 96.55 253.15 96.55 251.7 96.55 250.7 97.7 249.7 98.85 249.7 100.45 249.7 102.05 250.7 103.2 251.7 104.35 253.15 104.35 254.6 104.35 255.6 103.2 256.6 102.05 256.6 100.45 256.6 98.85 255.6 97.7
M 79.25 42.7
Q 80.85 41.55 80.85 39.9 80.85 38.25 79.25 37.05 77.7 35.9 75.45 35.9 73.2 35.9 71.6 37.05 70.05 38.25 70.05 39.9 70.05 41.55 71.6 42.7 73.2 43.9 75.45 43.9 77.7 43.9 79.25 42.7
M 132.5 263.15
Q 134.05 261.6 134.05 259.45 134.05 257.3 132.5 255.75 130.95 254.2 128.8 254.2 126.65 254.2 125.1 255.75 123.55 257.3 123.55 259.45 123.55 261.6 125.1 263.15 126.65 264.7 128.8 264.7 130.95 264.7 132.5 263.15
M 217.05 192.3
Q 222.5 197.6 230.25 197.6 238 197.6 243.45 192.3 248.9 187 248.9 179.5 248.9 172 243.45 166.7 238 161.4 230.25 161.4 222.5 161.4 217.05 166.7 211.6 172 211.6 179.5 211.6 187 217.05 192.3
M 145.15 184.2
Q 138.15 177.2 128.25 177.2 118.35 177.2 111.35 184.2 104.35 191.2 104.35 201.1 104.35 211 111.35 218 118.35 225 128.25 225 138.15 225 145.15 218 152.15 211 152.15 201.1 152.15 191.2 145.15 184.2
M 265.1 74.2
Q 265.1 69.35 261.7 65.95 258.3 62.55 253.45 62.55 248.65 62.55 245.2 65.95 241.8 69.35 241.8 74.2 241.8 79.05 245.2 82.45 248.65 85.85 253.45 85.85 258.3 85.85 261.7 82.45 265.1 79.05 265.1 74.2 Z"/>

<path fill="#521309" stroke="none" d="
M 258.55 246.25
Q 264.7 239.5 264.7 229.95 264.7 220.4 258.55 213.65 252.4 206.9 243.7 206.9 235 206.9 228.85 213.65 222.7 220.4 222.7 229.95 222.7 239.5 228.85 246.25 235 253 243.7 253 252.4 253 258.55 246.25
M 201.4 261.85
Q 196.45 257.05 189.45 257.05 182.45 257.05 177.5 261.85 172.55 266.65 172.55 273.4 172.55 280.15 177.5 284.95 182.45 289.75 189.45 289.75 196.45 289.75 201.4 284.95 206.35 280.15 206.35 273.4 206.35 266.65 201.4 261.85
M 71.9 263.4
Q 74.65 260.95 74.65 257.4 74.65 253.9 71.9 251.4 69.15 248.95 65.25 248.95 61.35 248.95 58.6 251.4 55.9 253.9 55.9 257.4 55.9 260.95 58.6 263.4 61.35 265.9 65.25 265.9 69.15 265.9 71.9 263.4
M 262.1 132.8
Q 258.25 136.85 258.25 142.5 258.25 148.2 262.1 152.2 266 156.2 271.5 156.2 276.95 156.2 280.85 152.2 284.75 148.2 284.75 142.5 284.75 136.85 280.85 132.8 276.95 128.8 271.5 128.8 266 128.8 262.1 132.8
M 112.65 292.35
Q 112.655859375 292.4419921875 112.65 292.5 114.282421875 292.8876953125 115.9 293.25 114.2681640625 292.8169921875 112.65 292.35 Z"/>

<path fill="#965333" stroke="none" d="
M 115.4 283.05
Q 98.7578125 281.13203125 86.15 279.95 82.6 279.6 79.7 279.65 93.5466796875 287.176953125 112.65 292.35 114.2681640625 292.8169921875 115.9 293.25 122.264453125 294.870703125 129.15 296.25 156.04140625 299.5447265625 181.5 293.2 184.6384765625 292.42578125 187.75 291.5 178.05 293.45 172.65 292.1 154.65 287.8 129.2 284.7 121.98125 283.820703125 115.4 283.05
M 246 38.35
Q 245.8498046875 38.2603515625 245.7 38.15 239.9123046875 34.6875 241.1 34.25 241.1623046875 34.2154296875 241.25 34.2 241.5 34.1 241.95 34.2
L 240.95 33.95 239.45 32.55
Q 239.3 32.5 239.1 32.5 238.6 32.05 238.1 31.7 237.35 31.15 236.7 30.7 236.3 30.45 235.95 30.2
L 235.7 29.95
Q 235.663671875 29.951953125 235.6 29.95 234.75390625 29.9865234375 234.85 29.65 232.51484375 27.844921875 230.05 25.95 225.0673828125 22.2126953125 219.55 18.2 211.25 12.15 180.25 4.3 150.738671875 -3.220703125 119.3 4.45 117.739453125 4.87265625 116.15 5.3 98.0939453125 10.1623046875 86.15 15.2 76.2982421875 19.3626953125 70.65 23.65 70.7150390625 23.65625 70.75 23.65 76.4869140625 24.220703125 92.55 26 105.5 27.4 127.1 27.4 134.1 27.4 141.95 27.25 145.85 27.2 149.55 27.1 176.45 26.55 192.75 25.45 210.95 24.25 245.05 39.35 245.4408203125 39.5453125 246.5 38.85 246.524609375 38.8662109375 246.55 38.85 246.6 38.8 246.7 38.75 246.55 38.75 246.45 38.8
L 246.4 38.8
Q 245.03984375 39.0396484375 246.1 38.5 246.1271484375 38.5109375 246.15 38.5
L 246.15 38.45
Q 246.05 38.4 246 38.35 Z"/>
</g>
</defs>

<g transform="matrix( 1, 0, 0, 1, 0,0) ">
<use xlink:href="#Layer6_0_FILL"/>
</g>
</svg>
