
<svg xmlns="http://www.w3.org/2000/svg" version="1.1" xmlns:xlink="http://www.w3.org/1999/xlink" preserveAspectRatio="none" x="0px" y="0px" width="300px" height="300px" viewBox="0 0 300 300">
<defs>
<g id="Layer14_0_FILL">
<path fill="#AF9C77" stroke="none" d="
M 252.6 46.6
Q 251.65 45.65 250.7 44.75 208.9 4.2 150.25 4.2 90.3 4.2 47.9 46.6 5.5 89 5.5 148.95 5.5 208.9 47.9 251.3 65.35 268.75 85.75 279 114.95 293.7 150.25 293.7 160.8 293.7 170.8 292.4
L 190.9 288.3
Q 191.2 288.2 191.5 288.1 209.45 282.95 225.4 273.05 225.6 272.9 225.85 272.75
L 252.6 251.3
Q 295 208.9 295 148.95 295 135.05 292.75 122.1 285.15 79.15 252.6 46.6
M 279 100.1
Q 279.9 101 279.9 102.3 279.9 103.6 279 104.5 278.1 105.4 276.8 105.4 275.5 105.4 274.6 104.5 273.7 103.6 273.7 102.3 273.7 101 274.6 100.1 275.5 99.2 276.8 99.2 278.1 99.2 279 100.1
M 230.3 232.75
Q 232 234.45 232 236.85 232 239.25 230.3 240.9 228.6 242.6 226.2 242.6 223.8 242.6 222.1 240.9 220.4 239.25 220.4 236.85 220.4 234.45 222.1 232.75 223.8 231.05 226.2 231.05 228.6 231.05 230.3 232.75
M 93.25 228.8
Q 96.1 231.4 96.1 235.05 96.1 238.75 93.25 241.35 90.35 243.95 86.35 243.95 82.3 243.95 79.45 241.35 76.55 238.75 76.55 235.05 76.55 231.4 79.45 228.8 82.3 226.2 86.35 226.2 90.35 226.2 93.25 228.8
M 227.55 34.85
Q 227.55 38.7 224.55 41.4 221.55 44.15 217.3 44.15 213.1 44.15 210.1 41.4 207.1 38.7 207.1 34.85 207.1 30.95 210.1 28.25 213.1 25.5 217.3 25.5 221.55 25.5 224.55 28.25 227.55 30.95 227.55 34.85
M 276.95 194.15
Q 273 194.15 270.2 191.35 267.4 188.55 267.4 184.6 267.4 180.65 270.2 177.85 273 175.05 276.95 175.05 280.9 175.05 283.7 177.85 286.5 180.65 286.5 184.6 286.5 188.55 283.7 191.35 280.9 194.15 276.95 194.15
M 194.85 219.05
Q 194.85 226.95 189.25 232.5 183.7 238.1 175.8 238.1 167.9 238.1 162.3 232.5 156.75 226.95 156.75 219.05 156.75 211.15 162.3 205.55 167.9 200 175.8 200 183.7 200 189.25 205.55 194.85 211.15 194.85 219.05
M 240.3 145.05
Q 235.15 139.9 235.15 132.6 235.15 125.3 240.3 120.15 245.45 115 252.75 115 260.05 115 265.2 120.15 270.35 125.3 270.35 132.6 270.35 139.9 265.2 145.05 260.05 150.2 252.75 150.2 245.45 150.2 240.3 145.05
M 238.9 78.35
Q 238.9 81.4 236.75 83.55 234.6 85.7 231.55 85.7 228.5 85.7 226.35 83.55 224.2 81.4 224.2 78.35 224.2 75.3 226.35 73.15 228.5 71 231.55 71 234.6 71 236.75 73.15 238.9 75.3 238.9 78.35
M 22 170.65
Q 22 166.1 25.2 162.85 28.45 159.65 33 159.65 37.55 159.65 40.75 162.85 44 166.1 44 170.65 44 175.2 40.75 178.4 37.55 181.65 33 181.65 28.45 181.65 25.2 178.4 22 175.2 22 170.65
M 160.3 288.05
Q 156.75 284.5 156.75 279.5 156.75 274.5 160.3 270.95 163.85 267.4 168.85 267.4 173.85 267.4 177.4 270.95 180.95 274.5 180.95 279.5 180.95 284.5 177.4 288.05 173.85 291.6 168.85 291.6 163.85 291.6 160.3 288.05
M 272.9 213.6
Q 272.9 222.45 266.65 228.7 260.4 234.95 251.55 234.95 242.7 234.95 236.45 228.7 230.2 222.45 230.2 213.6 230.2 204.75 236.45 198.5 242.7 192.25 251.55 192.25 260.4 192.25 266.65 198.5 272.9 204.75 272.9 213.6
M 114.05 270.6
Q 115.4 269.25 117.3 269.25 119.2 269.25 120.55 270.6 121.9 271.95 121.9 273.85 121.9 275.75 120.55 277.1 119.2 278.45 117.3 278.45 115.4 278.45 114.05 277.1 112.7 275.75 112.7 273.85 112.7 271.95 114.05 270.6
M 195.15 128.25
Q 195.15 130.55 193.55 132.15 191.95 133.75 189.65 133.75 187.35 133.75 185.75 132.15 184.15 130.55 184.15 128.25 184.15 125.95 185.75 124.35 187.35 122.75 189.65 122.75 191.95 122.75 193.55 124.35 195.15 125.95 195.15 128.25 Z"/>

<path fill="#937452" stroke="none" d="
M 193.55 132.15
Q 195.15 130.55 195.15 128.25 195.15 125.95 193.55 124.35 191.95 122.75 189.65 122.75 187.35 122.75 185.75 124.35 184.15 125.95 184.15 128.25 184.15 130.55 185.75 132.15 187.35 133.75 189.65 133.75 191.95 133.75 193.55 132.15
M 117.3 269.25
Q 115.4 269.25 114.05 270.6 112.7 271.95 112.7 273.85 112.7 275.75 114.05 277.1 115.4 278.45 117.3 278.45 119.2 278.45 120.55 277.1 121.9 275.75 121.9 273.85 121.9 271.95 120.55 270.6 119.2 269.25 117.3 269.25
M 266.65 228.7
Q 272.9 222.45 272.9 213.6 272.9 204.75 266.65 198.5 260.4 192.25 251.55 192.25 242.7 192.25 236.45 198.5 230.2 204.75 230.2 213.6 230.2 222.45 236.45 228.7 242.7 234.95 251.55 234.95 260.4 234.95 266.65 228.7
M 156.75 279.5
Q 156.75 284.5 160.3 288.05 163.85 291.6 168.85 291.6 173.85 291.6 177.4 288.05 180.95 284.5 180.95 279.5 180.95 274.5 177.4 270.95 173.85 267.4 168.85 267.4 163.85 267.4 160.3 270.95 156.75 274.5 156.75 279.5
M 232 236.85
Q 232 234.45 230.3 232.75 228.6 231.05 226.2 231.05 223.8 231.05 222.1 232.75 220.4 234.45 220.4 236.85 220.4 239.25 222.1 240.9 223.8 242.6 226.2 242.6 228.6 242.6 230.3 240.9 232 239.25 232 236.85
M 279.9 102.3
Q 279.9 101 279 100.1 278.1 99.2 276.8 99.2 275.5 99.2 274.6 100.1 273.7 101 273.7 102.3 273.7 103.6 274.6 104.5 275.5 105.4 276.8 105.4 278.1 105.4 279 104.5 279.9 103.6 279.9 102.3 Z"/>

<path fill="#A58A66" stroke="none" d="
M 25.2 162.85
Q 22 166.1 22 170.65 22 175.2 25.2 178.4 28.45 181.65 33 181.65 37.55 181.65 40.75 178.4 44 175.2 44 170.65 44 166.1 40.75 162.85 37.55 159.65 33 159.65 28.45 159.65 25.2 162.85
M 236.75 83.55
Q 238.9 81.4 238.9 78.35 238.9 75.3 236.75 73.15 234.6 71 231.55 71 228.5 71 226.35 73.15 224.2 75.3 224.2 78.35 224.2 81.4 226.35 83.55 228.5 85.7 231.55 85.7 234.6 85.7 236.75 83.55
M 235.15 132.6
Q 235.15 139.9 240.3 145.05 245.45 150.2 252.75 150.2 260.05 150.2 265.2 145.05 270.35 139.9 270.35 132.6 270.35 125.3 265.2 120.15 260.05 115 252.75 115 245.45 115 240.3 120.15 235.15 125.3 235.15 132.6
M 189.25 232.5
Q 194.85 226.95 194.85 219.05 194.85 211.15 189.25 205.55 183.7 200 175.8 200 167.9 200 162.3 205.55 156.75 211.15 156.75 219.05 156.75 226.95 162.3 232.5 167.9 238.1 175.8 238.1 183.7 238.1 189.25 232.5
M 270.2 191.35
Q 273 194.15 276.95 194.15 280.9 194.15 283.7 191.35 286.5 188.55 286.5 184.6 286.5 180.65 283.7 177.85 280.9 175.05 276.95 175.05 273 175.05 270.2 177.85 267.4 180.65 267.4 184.6 267.4 188.55 270.2 191.35
M 224.55 41.4
Q 227.55 38.7 227.55 34.85 227.55 30.95 224.55 28.25 221.55 25.5 217.3 25.5 213.1 25.5 210.1 28.25 207.1 30.95 207.1 34.85 207.1 38.7 210.1 41.4 213.1 44.15 217.3 44.15 221.55 44.15 224.55 41.4
M 96.1 235.05
Q 96.1 231.4 93.25 228.8 90.35 226.2 86.35 226.2 82.3 226.2 79.45 228.8 76.55 231.4 76.55 235.05 76.55 238.75 79.45 241.35 82.3 243.95 86.35 243.95 90.35 243.95 93.25 241.35 96.1 238.75 96.1 235.05 Z"/>
</g>
</defs>

<g transform="matrix( 1, 0, 0, 1, 0,0) ">
<use xlink:href="#Layer14_0_FILL"/>
</g>
</svg>
