
<svg xmlns="http://www.w3.org/2000/svg" version="1.1" xmlns:xlink="http://www.w3.org/1999/xlink" preserveAspectRatio="none" x="0px" y="0px" width="300px" height="300px" viewBox="0 0 300 300">
<defs>
<g id="Mercury_Self_0_Layer1_0_FILL">
<path fill="#937452" stroke="none" d="
M 295.35 -20.4
Q 290.15 -15.15 290.15 -7.8 290.15 -0.45 295.35 4.75 300.6 10 307.95 10 311.0388671875 10 313.75 9.05 311.00390625 26.1705078125 307.35 42.4 309.465625 43.50546875 311.3 45.2 316.55 50.05 316.55 56.95 316.55 63.9 311.3 68.75 306.3083984375 73.361328125 299.25 73.6 293.4005859375 93.5453125 286 112.05 285.5580078125 112 285.1 112 281.35 112 278.7 115.5 276.1 119.05 276.1 124 276.1 126.2638671875 276.65 128.2 274.310546875 124.160546875 270.75 120.6 260.45 110.3 245.95 110.3 231.45 110.3 221.1 120.6 210.8 130.9 210.8 145.4 210.8 159.9 221.1 170.2 231.45 180.55 245.95 180.55 248.1728515625 180.55 250.3 180.3 214.8080078125 233.38046875 161.75 269.65 149.59140625 257.55 132.35 257.55 115.05 257.55 102.8 269.75 90.6 282 90.6 299.3 90.6 303.48984375 91.3 307.35 69.786328125 316.223046875 46.25 323.15
L 91.5 313.9
Q 92.2392578125 313.6796875 92.95 313.45
L 92.95 313.5
Q 133.35 301.9 169.3 279.6
L 169.3 279.55
Q 169.80703125 279.260546875 170.3 278.95
L 230.6 230.6
Q 326.1 135.1 326.1 0 326.1 -31.3 321 -60.5 319.96640625 -41.0544921875 317.95 -22.55 313.591015625 -25.6 307.95 -25.6 300.6 -25.6 295.35 -20.4
M -31.2 293.9
Q -33.35 291.75 -36.35 291.75 -39.35 291.75 -41.55 293.9 -43.7 296.1 -43.7 299.1 -43.7 302.1 -41.55 304.25 -39.35 306.45 -36.35 306.45 -33.35 306.45 -31.2 304.25 -29 302.1 -29 299.1 -29 296.1 -31.2 293.9
M 180.3 188.8
Q 176.5 185 171.1 185 165.7 185 161.85 188.8 158.05 192.6 158.05 198 158.05 203.4 161.85 207.2 165.7 211 171.1 211 176.5 211 180.3 207.2 184.15 203.4 184.15 198 184.15 192.6 180.3 188.8
M 280.15 -110.05
Q 278.1 -108 278.1 -105.1 278.1 -102.2 280.15 -100.15 282.2 -98.1 285.1 -98.1 288 -98.1 290.05 -100.15 292.1 -102.2 292.1 -105.1 292.1 -108 290.05 -110.05 288 -112.1 285.1 -112.1 282.2 -112.1 280.15 -110.05
M 227.1 -229.2
Q 226.3427734375 -229.35 225.5 -229.35 222.5 -229.35 220.3 -227.2 218.15 -225 218.15 -222 218.15 -218.95 220.3 -216.8 222.5 -214.6 225.5 -214.6 227.343359375 -214.6 228.85 -215.4 229.8494140625 -215.9294921875 230.7 -216.8 232.9 -218.95 232.9 -221.95 232.9 -225 230.7 -227.2 229.144140625 -228.755859375 227.1 -229.2 Z"/>

<path fill="#A58A66" stroke="none" d="
M 226.35 -234.8
Q 226.743359375 -231.9845703125 227.1 -229.2 229.144140625 -228.755859375 230.7 -227.2 232.9 -225 232.9 -221.95 232.9 -218.95 230.7 -216.8 229.8494140625 -215.9294921875 228.85 -215.4 240.8548828125 -113.794921875 226.9 -31.95 225.527734375 -32.05 224.1 -32.05 212.5 -32.05 204.3 -23.3 196.1 -14.5 196.1 -2.05 196.1 10.4 204.3 19.15 208.30546875 23.4486328125 213.1 25.65 170.7322265625 160.2583984375 43.85 230.6 44.05 228.84375 44.05 227 44.05 213.35 33.8 203.65 23.55 194 9.05 194 -5.45 194 -15.7 203.65 -25.95 213.35 -25.95 227 -25.95 240.65 -15.7 250.3 -12.3958984375 253.4267578125 -8.65 255.55 -69.3900390625 280.066796875 -145.3 293.05 -79.5 326.1 0 326.1 23.75 326.1 46.25 323.15 69.786328125 316.223046875 91.3 307.35 90.6 303.48984375 90.6 299.3 90.6 282 102.8 269.75 115.05 257.55 132.35 257.55 149.59140625 257.55 161.75 269.65 214.8080078125 233.38046875 250.3 180.3 248.1728515625 180.55 245.95 180.55 231.45 180.55 221.1 170.2 210.8 159.9 210.8 145.4 210.8 130.9 221.1 120.6 231.45 110.3 245.95 110.3 260.45 110.3 270.75 120.6 274.310546875 124.160546875 276.65 128.2 276.1 126.2638671875 276.1 124 276.1 119.05 278.7 115.5 281.35 112 285.1 112 285.5580078125 112 286 112.05 293.4005859375 93.5453125 299.25 73.6 306.3083984375 73.361328125 311.3 68.75 316.55 63.9 316.55 56.95 316.55 50.05 311.3 45.2 309.465625 43.50546875 307.35 42.4 311.00390625 26.1705078125 313.75 9.05 311.0388671875 10 307.95 10 300.6 10 295.35 4.75 290.15 -0.45 290.15 -7.8 290.15 -15.15 295.35 -20.4 300.6 -25.6 307.95 -25.6 313.591015625 -25.6 317.95 -22.55 319.96640625 -41.0544921875 321 -60.5 303.95 -157.25 230.6 -230.6 228.5 -232.7 226.35 -234.8
M 278.1 -105.1
Q 278.1 -108 280.15 -110.05 282.2 -112.1 285.1 -112.1 288 -112.1 290.05 -110.05 292.1 -108 292.1 -105.1 292.1 -102.2 290.05 -100.15 288 -98.1 285.1 -98.1 282.2 -98.1 280.15 -100.15 278.1 -102.2 278.1 -105.1
M 171.1 185
Q 176.5 185 180.3 188.8 184.15 192.6 184.15 198 184.15 203.4 180.3 207.2 176.5 211 171.1 211 165.7 211 161.85 207.2 158.05 203.4 158.05 198 158.05 192.6 161.85 188.8 165.7 185 171.1 185
M -36.35 291.75
Q -33.35 291.75 -31.2 293.9 -29 296.1 -29 299.1 -29 302.1 -31.2 304.25 -33.35 306.45 -36.35 306.45 -39.35 306.45 -41.55 304.25 -43.7 302.1 -43.7 299.1 -43.7 296.1 -41.55 293.9 -39.35 291.75 -36.35 291.75
M 59.65 144.2
Q 54.2 144.2 50.3 148.1 46.4 152 46.4 157.45 46.4 162.9 50.3 166.8 54.2 170.75 59.65 170.75 65.15 170.75 69.05 166.8 72.95 162.9 72.95 157.45 72.95 152 69.05 148.1 65.15 144.2 59.65 144.2
M -128.45 179.85
Q -134.9 174 -144 174 -153.1 174 -159.55 179.85 -166 185.7 -166 194 -166 202.3 -159.55 208.15 -153.1 214 -144 214 -134.9 214 -128.45 208.15 -122 202.3 -122 194 -122 185.7 -128.45 179.85
M 169.9 70.45
Q 169.9 67.35 167.65 65.1 165.4 62.9 162.25 62.9 159.15 62.9 156.9 65.1 154.7 67.35 154.7 70.45 154.7 73.6 156.9 75.8 159.15 78.05 162.25 78.05 165.4 78.05 167.65 75.8 169.9 73.6 169.9 70.45
M 200.25 -119.95
Q 196.4 -123.8 191.05 -123.8 185.7 -123.8 181.85 -119.95 178 -116.1 178 -110.75 178 -105.4 181.85 -101.55 185.7 -97.7 191.05 -97.7 196.4 -97.7 200.25 -101.55 204.1 -105.4 204.1 -110.75 204.1 -116.1 200.25 -119.95
M 4.8 -300.25
Q 8.25 -303.7 8.25 -308.6 8.25 -313.55 4.8 -317 1.35 -320.45 -3.55 -320.45 -8.45 -320.45 -11.9 -317 -15.35 -313.55 -15.35 -308.65 -15.35 -303.7 -11.9 -300.25 -8.45 -296.8 -3.55 -296.8 1.35 -296.8 4.8 -300.25
M 174.15 -257.1
Q 174.15 -265.8 167.4 -271.95 160.65 -278.1 151.1 -278.1 141.55 -278.1 134.8 -271.95 128.05 -265.8 128.05 -257.1 128.05 -248.4 134.8 -242.25 141.55 -236.1 151.1 -236.1 160.65 -236.1 167.4 -242.25 174.15 -248.4 174.15 -257.1 Z"/>

<path fill="#AF9C77" stroke="none" d="
M 227.1 -229.2
Q 226.743359375 -231.9845703125 226.35 -234.8 132.1 -326.1 0 -326.1 -135.1 -326.1 -230.6 -230.6 -326.1 -135.1 -326.1 0 -326.1 135.1 -230.6 230.6 -191.3 269.9 -145.3 293.05 -69.3900390625 280.066796875 -8.65 255.55 -12.3958984375 253.4267578125 -15.7 250.3 -25.95 240.65 -25.95 227 -25.95 213.35 -15.7 203.65 -5.45 194 9.05 194 23.55 194 33.8 203.65 44.05 213.35 44.05 227 44.05 228.84375 43.85 230.6 170.7322265625 160.2583984375 213.1 25.65 208.30546875 23.4486328125 204.3 19.15 196.1 10.4 196.1 -2.05 196.1 -14.5 204.3 -23.3 212.5 -32.05 224.1 -32.05 225.527734375 -32.05 226.9 -31.95 240.8548828125 -113.794921875 228.85 -215.4 227.343359375 -214.6 225.5 -214.6 222.5 -214.6 220.3 -216.8 218.15 -218.95 218.15 -222 218.15 -225 220.3 -227.2 222.5 -229.35 225.5 -229.35 226.3427734375 -229.35 227.1 -229.2
M 167.4 -271.95
Q 174.15 -265.8 174.15 -257.1 174.15 -248.4 167.4 -242.25 160.65 -236.1 151.1 -236.1 141.55 -236.1 134.8 -242.25 128.05 -248.4 128.05 -257.1 128.05 -265.8 134.8 -271.95 141.55 -278.1 151.1 -278.1 160.65 -278.1 167.4 -271.95
M 8.25 -308.6
Q 8.25 -303.7 4.8 -300.25 1.35 -296.8 -3.55 -296.8 -8.45 -296.8 -11.9 -300.25 -15.35 -303.7 -15.35 -308.65 -15.35 -313.55 -11.9 -317 -8.45 -320.45 -3.55 -320.45 1.35 -320.45 4.8 -317 8.25 -313.55 8.25 -308.6
M 191.05 -123.8
Q 196.4 -123.8 200.25 -119.95 204.1 -116.1 204.1 -110.75 204.1 -105.4 200.25 -101.55 196.4 -97.7 191.05 -97.7 185.7 -97.7 181.85 -101.55 178 -105.4 178 -110.75 178 -116.1 181.85 -119.95 185.7 -123.8 191.05 -123.8
M 167.65 65.1
Q 169.9 67.35 169.9 70.45 169.9 73.6 167.65 75.8 165.4 78.05 162.25 78.05 159.15 78.05 156.9 75.8 154.7 73.6 154.7 70.45 154.7 67.35 156.9 65.1 159.15 62.9 162.25 62.9 165.4 62.9 167.65 65.1
M -229.6 -191.25
Q -215.9 -198.65 -204.3 -193.05 -192.75 -187.5 -190.05 -172.2 -187.3 -156.9 -195.05 -140.8 -202.8 -124.75 -216.45 -117.35 -230.15 -109.95 -241.7 -115.5 -253.3 -121.1 -256 -136.4 -258.75 -151.7 -251 -167.75 -243.25 -183.85 -229.6 -191.25
M -144 174
Q -134.9 174 -128.45 179.85 -122 185.7 -122 194 -122 202.3 -128.45 208.15 -134.9 214 -144 214 -153.1 214 -159.55 208.15 -166 202.3 -166 194 -166 185.7 -159.55 179.85 -153.1 174 -144 174
M 50.3 148.1
Q 54.2 144.2 59.65 144.2 65.15 144.2 69.05 148.1 72.95 152 72.95 157.45 72.95 162.9 69.05 166.8 65.15 170.75 59.65 170.75 54.2 170.75 50.3 166.8 46.4 162.9 46.4 157.45 46.4 152 50.3 148.1 Z"/>

<path fill="#D6CCA7" stroke="none" d="
M -204.3 -193.05
Q -215.9 -198.65 -229.6 -191.25 -243.25 -183.85 -251 -167.75 -258.75 -151.7 -256 -136.4 -253.3 -121.1 -241.7 -115.5 -230.15 -109.95 -216.45 -117.35 -202.8 -124.75 -195.05 -140.8 -187.3 -156.9 -190.05 -172.2 -192.75 -187.5 -204.3 -193.05 Z"/>
</g>

<g id="Mercury_Self_0_Layer0_0_FILL">
<path fill="#000000" stroke="none" d="
M -203.55 -59.8
Q -207.55 -65.1 -213.6 -65.35 -219.65 -65.6 -224.15 -60.6 -228.55 -55.55 -228.85 -48.2 -229.1 -40.85 -225.1 -35.55 -221 -30.2 -214.95 -29.95 -208.9 -29.7 -204.5 -34.75 -200 -39.75 -199.75 -47.1 -199.45 -54.45 -203.55 -59.8
M 12.5 -28.2
Q 12.8 -35.55 8.7 -41 4.65 -46.25 -1.4 -46.5 -7.4 -46.7 -11.9 -41.8 -16.35 -36.7 -16.65 -29.35 -16.9 -22 -12.85 -16.75 -8.75 -11.3 -2.75 -11.1 3.3 -10.85 7.75 -15.95 12.25 -20.85 12.5 -28.2 Z"/>
</g>

<path id="Mercury_Self_0_Layer0_0_1_STROKES" stroke="#000000" stroke-width="5" stroke-linejoin="round" stroke-linecap="round" fill="none" d="
M -159.9 44.6
Q -126.9 74.66875 -80.9 52.9"/>
</defs>

<g transform="matrix( 0.4483184814453125, 0, 0, 0.4483184814453125, 148.2,150.4) ">
<g transform="matrix( 1, 0, 0, 1, 0,0) ">
<use xlink:href="#Mercury_Self_0_Layer1_0_FILL"/>
</g>

<g transform="matrix( 1, 0, 0, 1, 0,0) ">
<use xlink:href="#Mercury_Self_0_Layer0_0_FILL"/>

<use xlink:href="#Mercury_Self_0_Layer0_0_1_STROKES"/>
</g>
</g>
</svg>
