
<svg xmlns="http://www.w3.org/2000/svg" version="1.1" xmlns:xlink="http://www.w3.org/1999/xlink" preserveAspectRatio="none" x="0px" y="0px" width="300px" height="300px" viewBox="0 0 300 300">
<defs>
<g id="Layer2_0_FILL">
<path fill="#347AD1" stroke="none" d="
M 109.15 208.6
Q 130.4 214.45 152.25 219.65 168.95 223.65 185.95 227.25 198.55 229.95 211.35 232.45 211.75 232.15 212.15 231.85
L 223.3 222.05
Q 223.9 221.45 224.45 220.9
L 229.25 215.7
Q 229.55 215.3 229.85 214.9 215.15 214.15 200.85 212.85 192.85 212.15 185 211.25 173.9 215.2 158.65 215.35 137.75 215.55 109.15 208.6
M 228.45 172.75
Q 215.35 177.05 197.05 176.85 177.3 176.65 151.4 171.25 159.2572265625 175.873046875 167.5 179.4 203.6953125 183.3083984375 231.4 183.15 241.0439453125 183.094921875 248.05 182.55 250.2892578125 175.73046875 251.5 168.5 251.55 168.35 251.55 168.25
L 252.85 155.95
Q 252.9 155.5 252.9 155.1 244.75 167.4 228.45 172.75
M 147.45 224.85
L 147.3 225.5
Q 145.05 225.35 142.95 225.2 98.35 223 103.75 240 103.95 240.15 104.15 240.25
L 106.1 241.25
Q 106.22734375 241.318359375 106.35 241.4 106.5 241.45 106.6 241.5
L 115.5 245.4
Q 116.75 245.9 118.05 246.35 129.8 224.95 170.6 232.65
L 170.65 232.5
Q 158.35 227.75 147.45 224.85
M 86.75 72.5
Q 86.3544921875 72.84921875 85.95 73.2
L 80.45 78.3
Q 80.35 78.4 80.25 78.5 80.1 78.6 80 78.75
L 79.95 78.8
Q 79.85 78.9 79.75 79 127.25 93.6 179.65 101.35 147.15 93.1 149.85 89 116.65 81.8 86.75 72.5 Z"/>

<path fill="#5B9FE4" stroke="none" d="
M 147.45 224.85
Q 146.1 224.5 144.8 224.2 107.75 215.05 86.55 228.15
L 103.45 239.85
Q 103.6 239.95 103.75 240 98.35 223 142.95 225.2 145.05 225.35 147.3 225.5
L 147.45 224.85
M 55.6 183.55
Q 57.4 189 59.95 194.2 80.9 200.85 102.45 206.85
L 109.15 208.6
Q 137.75 215.55 158.65 215.35 173.9 215.2 185 211.25 175.9 210.25 167.05 209.05 107.5 200.9 55.6 183.55
M 242.6 105
Q 242.35 104.55 242.15 104.1 233.5 103.1 225.05 101.95 185.5 96.7 149.85 89 147.15 93.1 179.65 101.35 201.55 104.55 224.3 106.6 234.1431640625 107.4994140625 244.05 108.15
L 244.1 108.15
Q 244 107.95 243.9 107.75
L 242.6 105
M 227 82.6
Q 226.85 82.5 226.75 82.35 226.65 82.2 226.55 82.1 225.25 80.7 223.9 79.3 192.8 78.65 166.75 64.5 186 81.95 226.2 92.6 231.35 93.95 236.9 95.2 236.75 95.05 236.65 94.85 236.25 94.25 235.8 93.6 235.45 93.15 235.15 92.7 234.7 92 234.2 91.4 234.15 91.3 234.05 91.2 230.8 86.8 227 82.6 Z"/>

<path fill="#2B4FC3" stroke="none" d="
M 241.5 197.85
Q 228.2029296875 198.0478515625 213.5 197.45 198.4421875 196.84375 181.9 195.4 164.202734375 193.8328125 144.8 191.3 137.15 190.3 129.8 189.2 85.75078125 182.7171875 52.7 173.35 58.773828125 200.8595703125 80 222.05 83.2 225.25 86.55 228.15 107.75 215.05 144.8 224.2 146.1 224.5 147.45 224.85 158.35 227.75 170.65 232.5
L 170.6 232.65
Q 129.8 224.95 118.05 246.35 133.4 251.6 150.85 251.75 151.25 251.75 151.65 251.75 185.5 251.75 211.35 232.45 198.55 229.95 185.95 227.25 168.95 223.65 152.25 219.65 130.4 214.45 109.15 208.6
L 102.45 206.85
Q 80.9 200.85 59.95 194.2 57.4 189 55.6 183.55 107.5 200.9 167.05 209.05 175.9 210.25 185 211.25 192.85 212.15 200.85 212.85 215.15 214.15 229.85 214.9 236.691796875 206.805078125 241.5 197.85
M 223.9 79.3
Q 223.6 79 223.3 78.75 193.65 49.05 151.65 49.05 114.3498046875 49.05 86.75 72.5 116.65 81.8 149.85 89 185.5 96.7 225.05 101.95 233.5 103.1 242.15 104.1 239.75 99.55 236.9 95.2 231.35 93.95 226.2 92.6 186 81.95 166.75 64.5 192.8 78.65 223.9 79.3
M 224.3 106.6
Q 201.55 104.55 179.65 101.35 127.25 93.6 79.75 79 50.3 108.59140625 50.3 150.4 50.3 153.7537109375 50.5 157 57.1146484375 159.3646484375 66.55 161.9 99.65 170.85 147.85 177.05 157.96953125 178.3630859375 167.5 179.4 159.2572265625 175.873046875 151.4 171.25 177.3 176.65 197.05 176.85 215.35 177.05 228.45 172.75 244.75 167.4 252.9 155.1 253 152.75 253 150.4 253 130.25 246.15 112.95 245.18203125 110.50703125 244.05 108.15 234.1431640625 107.4994140625 224.3 106.6
M 106.3 241.4
L 106.35 241.4
Q 106.22734375 241.318359375 106.1 241.25 106.21875 241.31875 106.3 241.4 Z"/>

<path fill="#CBEDFE" fill-opacity="0.24705882352941178" stroke="none" d="
M 213.5 197.45
Q 228.2029296875 198.0478515625 241.5 197.85 246.7392578125 197.7564453125 251.75 197.55 296.8 195.7 297.25 184.9 297.65 174.2 254.05 161.15
L 253.1 161.05 252.4 166.7
Q 267 172.05 266.8 176.35 266.51015625 181.1314453125 248.05 182.55 241.0439453125 183.094921875 231.4 183.15 203.6953125 183.3083984375 167.5 179.4 157.96953125 178.3630859375 147.85 177.05 99.65 170.85 66.55 161.9 57.1146484375 159.3646484375 50.5 157 34.1169921875 151.25625 34.9 146.7 35.55 142.75 49.25 141.2
L 49.65 135.3 47.95 135.15
Q 5.15 137.05 3.25 147.2 1.35 157.45 42.15 170.2 47.2876953125 171.818359375 52.7 173.35 85.75078125 182.7171875 129.8 189.2 137.15 190.3 144.8 191.3 164.202734375 193.8328125 181.9 195.4 198.4421875 196.84375 213.5 197.45 Z"/>

<path fill="#1E32B0" stroke="none" d="
M 106.6 241.5
Q 106.5 241.45 106.35 241.4
L 106.3 241.4
Q 106.45 241.45 106.6 241.5 Z"/>
</g>
</defs>

<g transform="matrix( 1, 0, 0, 1, 0,0) ">
<use xlink:href="#Layer2_0_FILL"/>
</g>
</svg>
