
<svg xmlns="http://www.w3.org/2000/svg" version="1.1" xmlns:xlink="http://www.w3.org/1999/xlink" preserveAspectRatio="none" x="0px" y="0px" width="300px" height="300px" viewBox="0 0 300 300">
<defs>
<g id="Neptune_Self_0_Layer2_0_FILL">
<path fill="#13239E" stroke="none" d="
M 171.2 235.3
Q 134.5103515625 228.1490234375 98.3 220.4 53.6076171875 259.0794921875 -2.3 290.65 -1.15 290.65 0 290.65 97.0791015625 290.65 171.2 235.3
M 269.6 111
Q 229.303515625 116.075390625 191.3 114.8 169.0671875 148.7888671875 141.05 179.1 182.099609375 182.802734375 224.3 185.05 253.278125 150.6498046875 269.6 111
M 290.35 13.45
Q 290.65 6.79765625 290.65 0 290.65 -57.8 271.05 -107.45 258.6009765625 -13.4759765625 220.25 64.1 266.9982421875 48.773046875 290.35 13.45 Z"/>

<path fill="#1E32B0" stroke="none" d="
M 95.6 174.55
Q 118.15234375 177.0578125 141.05 179.1 169.0671875 148.7888671875 191.3 114.8 148.7251953125 113.3939453125 109 104 80.346484375 139.018359375 44.05 168.15 69.5966796875 171.662109375 95.6 174.55
M -130 260.95
Q -129.5888671875 261.157421875 -129.2 261.35 -129.573828125 261.151953125 -130 260.95
L -130 260.95
M -19.7 211.55
Q -15.9111328125 212.4943359375 -12.1 213.5 19.25 221.8 54.5 235.5
L 54.4 235.85
Q -62.7 213.8 -96.4 275.15 -52.417578125 290.291015625 -2.3 290.65 53.6076171875 259.0794921875 98.3 220.4 49.5529296875 210.030078125 1.7 198.6 -8.734765625 205.2765625 -19.7 211.55
M 259.5 -132.8
Q 252.70234375 -145.8482421875 244.45 -158.3 228.5958984375 -161.90234375 213.75 -165.85 212.34375 -152.1935546875 210.45 -138.95 234.7150390625 -135.71171875 259.5 -132.8
M 271.05 -107.45
Q 268.0720703125 -114.9869140625 264.65 -122.35 264.8900390625 -121.76328125 265.15 -121.2 236.5357421875 -123.08359375 208.35 -125.6 189.1873046875 -9.5236328125 130.2 75.85 182.7578125 76.4150390625 220.25 64.1 258.6009765625 -13.4759765625 271.05 -107.45 Z"/>

<path fill="#347AD1" stroke="none" d="
M 222.45 187.2
Q 223.4201171875 186.148046875 224.35 185.05
L 224.3 185.05
Q 182.099609375 182.802734375 141.05 179.1 118.15234375 177.0578125 95.6 174.55 63.8044921875 185.873828125 20.05 186.25 -39.776171875 186.79375 -121.95 166.9 -60.913671875 183.628125 1.7 198.6 49.5529296875 210.030078125 98.3 220.4 134.5103515625 228.1490234375 171.2 235.3
L 171.25 235.3
Q 172.3625 234.46875 173.45 233.6
L 205.5 205.5
Q 207.1783203125 203.82265625 208.8 202.1
L 222.45 187.2
M 290.4 13.45
L 290.35 13.45
Q 266.9982421875 48.773046875 220.25 64.1 182.7578125 76.4150390625 130.2 75.85 73.5421875 75.2892578125 -0.65 59.75 51.13828125 90.3443359375 109 104 148.7251953125 113.3939453125 191.3 114.8 229.303515625 116.075390625 269.6 111 281.2064453125 82.8046875 286.4 51.95 286.4927734375 51.548046875 286.55 51.15
L 290.25 15.85
Q 290.3501953125 14.657421875 290.4 13.45
M -12.1 213.5
L -12.5 215.35
Q -18.916015625 214.9181640625 -25 214.6 -152.911328125 208.17734375 -137.4 257.05 -136.8404296875 257.3537109375 -136.3 257.65
L -130.8 260.55
Q -130.3796875 260.74453125 -130 260.95 -129.573828125 261.151953125 -129.2 261.35
L -103.75 272.5
Q -100.0861328125 273.8720703125 -96.4 275.15 -62.7 213.8 54.4 235.85
L 54.5 235.5
Q 19.25 221.8 -12.1 213.5
M -204.25 -206.9
Q -204.55234375 -206.545703125 -204.9 -206.25 -205.2173828125 -205.882421875 -205.55 -205.55
L -205.75 -205.4
Q -205.9875 -205.1 -206.25 -204.8 -70.05 -162.95 80.3 -140.75 -12.85 -164.4 -5.1 -176.15 -100.4 -196.75 -186.15 -223.4 -187.3076171875 -222.42265625 -188.5 -221.45
L -204.25 -206.9 Z"/>

<path fill="#2B4FC3" stroke="none" d="
M -130 260.95
Q -130.3796875 260.74453125 -130.8 260.55 -130.3951171875 260.75 -130 260.95
L -130 260.95
M 208.35 -125.6
Q 143.1076171875 -131.4580078125 80.3 -140.75 -70.05 -162.95 -206.25 -204.8 -205.9875 -205.1 -205.75 -205.4 -290.65 -120.275 -290.65 0 -290.65 120.4 -205.55 205.5 -196.328125 214.721875 -186.7 222.95 -125.8513671875 185.3783203125 -19.7 211.55 -8.734765625 205.2765625 1.7 198.6 -60.913671875 183.628125 -121.95 166.9
L -141.15 161.85
Q -202.95 144.65 -263.05 125.65 -270.25 110.75 -275.55 95.1 -126.5763671875 144.9029296875 44.05 168.15 80.346484375 139.018359375 109 104 51.13828125 90.3443359375 -0.65 59.75 73.5421875 75.2892578125 130.2 75.85 189.1873046875 -9.5236328125 208.35 -125.6
M 207.15 -203.9
Q 206.32265625 -204.72734375 205.5 -205.55 120.4 -290.65 0 -290.65 -108.5796875 -290.65 -188.5 -221.45 -187.3076171875 -222.42265625 -186.15 -223.4 -100.4 -196.75 -5.1 -176.15 97.1416015625 -154.0380859375 210.45 -138.95 212.34375 -152.1935546875 213.75 -165.85 98.4921875 -196.2955078125 43.35 -246.3 118 -205.85 207.15 -203.9 Z"/>

<path fill="#5B9FE4" stroke="none" d="
M -12.1 213.5
Q -15.9111328125 212.4943359375 -19.7 211.55 -125.8513671875 185.3783203125 -186.7 222.95
L -138.2 256.6
Q -137.8046875 256.82890625 -137.4 257.05 -152.911328125 208.17734375 -25 214.6 -18.916015625 214.9181640625 -12.5 215.35
L -12.1 213.5
M -141.15 161.85
L -121.95 166.9
Q -39.776171875 186.79375 20.05 186.25 63.8044921875 185.873828125 95.6 174.55 69.5966796875 171.662109375 44.05 168.15 -126.5763671875 144.9029296875 -275.55 95.1 -270.25 110.75 -263.05 125.65 -202.95 144.65 -141.15 161.85
M 264.65 -122.35
L 260.85 -130.15
Q 260.1775390625 -131.4791015625 259.5 -132.8 234.7150390625 -135.71171875 210.45 -138.95 97.1416015625 -154.0380859375 -5.1 -176.15 -12.85 -164.4 80.3 -140.75 143.1076171875 -131.4580078125 208.35 -125.6 236.5357421875 -123.08359375 265.15 -121.2 264.8900390625 -121.76328125 264.65 -122.35
M 244.45 -158.3
Q 244.1189453125 -158.79609375 243.75 -159.3 242.5833984375 -161.0896484375 241.35 -162.9 240.4072265625 -164.223828125 239.45 -165.6 238.1279296875 -167.428515625 236.75 -169.3 236.5880859375 -169.5197265625 236.4 -169.8 227.0494140625 -182.444921875 216.1 -194.45 215.7703125 -194.81171875 215.45 -195.2 215.1125 -195.5421875 214.75 -195.9 211.0466796875 -199.939453125 207.15 -203.9 118 -205.85 43.35 -246.3 98.4921875 -196.2955078125 213.75 -165.85 228.5958984375 -161.90234375 244.45 -158.3 Z"/>
</g>

<g id="Neptune_Self_0_Layer1_0_FILL">
<path fill="#CBEDFE" fill-opacity="0.24705882352941178" stroke="none" d="
M -293.75 -26.5
L -292.5 -43.35 -297.4 -43.7
Q -420.2 -38.3 -425.6 -9.2 -431.1 20.25 -314.1 56.85 -209.85 89.6 -62.6 111.35 -41.6 114.4 -19.65 117.35 158.3 140.6 287.05 135.25 416.25 129.9 417.55 98.9 418.8 68.25 293.7 30.9
L 290.9 30.55 288.95 46.8
Q 330.855859375 62.103125 330.2 74.4 329.1 93.3 228.7 93.95 128.4 94.5 -10.95 76.5 -149.2 58.65 -244.1 33 -338 7.7 -334.85 -10.55 -332.9322265625 -21.9626953125 -293.75 -26.5 Z"/>
</g>

<g id="Neptune_Self_0_Layer0_0_FILL">
<path fill="#000000" stroke="none" d="
M -14.2 -74.05
Q -14.2 -80.1 -18.5 -84.4 -22.75 -88.65 -28.8 -88.65 -34.85 -88.65 -39.15 -84.4 -43.4 -80.1 -43.4 -74.05 -43.4 -68 -39.15 -63.75 -34.85 -59.45 -28.8 -59.45 -22.75 -59.45 -18.5 -63.75 -14.2 -68 -14.2 -74.05
M -169.55 -101.75
Q -173.8 -106 -179.85 -106 -185.9 -106 -190.2 -101.75 -194.45 -97.45 -194.45 -91.4 -194.45 -85.35 -190.2 -81.1 -185.9 -76.8 -179.85 -76.8 -173.8 -76.8 -169.55 -81.1 -165.25 -85.35 -165.25 -91.4 -165.25 -97.45 -169.55 -101.75 Z"/>

<path fill="#8CC4FD" stroke="none" d="
M -206.5 -152.65
Q -207.65 -160.65 -213.4 -163.45 -219.15 -166.25 -226.2 -162.25 -233.2 -158.2 -237.35 -149.7 -241.5 -141.2 -240.3 -133.2 -239.15 -125.15 -233.4 -122.35 -227.65 -119.55 -220.6 -123.6 -213.6 -127.6 -209.45 -136.1 -205.3 -144.6 -206.5 -152.65 Z"/>
</g>

<path id="Neptune_Self_0_Layer0_0_1_STROKES" stroke="#000000" stroke-width="5" stroke-linejoin="round" stroke-linecap="round" fill="none" d="
M -144.6 -43.05
Q -119.9427734375 -27.398828125 -91.2 -36.65"/>
</defs>

<g transform="matrix( 0.350372314453125, 0, 0, 0.350372314453125, 151.8,156.4) ">
<g transform="matrix( 1, 0, 0, 1, 0,0) ">
<use xlink:href="#Neptune_Self_0_Layer2_0_FILL"/>
</g>

<g transform="matrix( 1, 0, 0, 1, 0,0) ">
<use xlink:href="#Neptune_Self_0_Layer1_0_FILL"/>
</g>

<g transform="matrix( 1, 0, 0, 1, 0,0) ">
<use xlink:href="#Neptune_Self_0_Layer0_0_FILL"/>

<use xlink:href="#Neptune_Self_0_Layer0_0_1_STROKES"/>
</g>
</g>
</svg>
