
<svg xmlns="http://www.w3.org/2000/svg" version="1.1" xmlns:xlink="http://www.w3.org/1999/xlink" preserveAspectRatio="none" x="0px" y="0px" width="300px" height="300px" viewBox="0 0 300 300">
<defs>
<g id="Saturn_Self_0_Layer2_0_FILL">
<path fill="#E8CA7B" stroke="none" d="
M -219.7 139.15
Q -215.95 144.95 -211.8 150.6 -136.658203125 167.58984375 -60 174.1 -3.7544921875 178.8673828125 53.3 178
L -55.15 164.2
Q -142.3 157.95 -219.7 139.15
M 169.65 -181.45
L 169.45 -182.85
Q -44.1 -164.65 -166.95 -198.9 -167.718359375 -198.24453125 -168.5 -197.6
L -179.05 -188
Q -179.2466796875 -187.7705078125 -179.45 -187.6 -181.2453125 -185.8447265625 -183.05 -184.1 -183.2822265625 -183.817578125 -183.55 -183.55 -184.9404296875 -182.15859375 -186.3 -180.75 -188.7052734375 -178.280078125 -191.05 -175.8 -192.63203125 -174.0462890625 -194.2 -172.3 -177.95 -167.7 -161.35 -163.7 -160.7 -163.55 -160.05 -163.4 4.05 -139.05 169.65 -181.45 Z"/>

<path fill="#986F27" stroke="none" d="
M -72.4 249.95
Q -52.043359375 248.0376953125 -32.85 244.45 -89.894140625 233.6935546875 -137.95 220.5 -107.2375 240.189453125 -72.4 249.95
M 135.2 163.6
Q 188.31171875 115.2947265625 222.95 40.6 192.879296875 22.8369140625 141.25 21.05 69.5443359375 124.684375 -35.15 165.45 45.932421875 169.8455078125 135.2 163.6
M 122.15 174.85
Q 87.5734375 177.4541015625 53.3 178 -3.7544921875 178.8673828125 -60 174.1 -113.466796875 190.57578125 -174.95 191.8 -172.321484375 194.2248046875 -169.65 196.55 -79.1107421875 214.3166015625 35.05 225.4 83.18125 206.678515625 122.15 174.85
M 255.35 -48.8
Q 246.65 -97.45 220.05 -138.65 194.32265625 -65.1771484375 160 -8.05 197.737890625 -9.1568359375 239.75 0 248.31171875 -23.3236328125 255.35 -48.8 Z"/>

<path fill="#C6A859" stroke="none" d="
M -138.55 -220.1
Q -138.8412109375 -219.90078125 -139.15 -219.7 -38.7 -211.3 70.1 -228.75 -6.4 -227.55 -80.95 -247.4 -89.5662109375 -244.6359375 -97.95 -241.25
L -138.55 -220.1
M 109.8 -0.95
L 109.65 -1.5
Q 71.05 7.7 37.8 29.7 97.3291015625 19.5814453125 141.25 21.05 192.879296875 22.8369140625 222.95 40.6 240.94921875 51.22734375 251.25 67.55 256.1 48.8 258.1 28.9
L 256.55 28.75
Q 246.443359375 20.6814453125 234.15 14.7 202.5865234375 -0.6951171875 156.6 -2.4 134.821875 -3.2130859375 109.8 -0.95 Z"/>

<path fill="#8C5F1E" stroke="none" d="
M 0 259.55
Q 20.6541015625 259.55 40.15 256.75 1.9814453125 251.0634765625 -32.85 244.45 -52.043359375 248.0376953125 -72.4 249.95 -38.2 259.55 0 259.55
M 183.5 183.5
Q 191.7205078125 175.2849609375 199.05 166.7 160.4142578125 172.0318359375 122.15 174.85 83.18125 206.678515625 35.05 225.4 74.8005859375 229.253515625 117.4 232.3 152.9890625 214.030859375 183.5 183.5
M 259.5 4.8
Q 259.3 17.05 258.1 28.9 256.1 48.8 251.25 67.55 240.94921875 51.22734375 222.95 40.6 188.31171875 115.2947265625 135.2 163.6 166.1685546875 161.440625 198.1 158
L 199.05 166.7
Q 259.55 95.8798828125 259.55 0 259.55 -25.3 255.35 -48.8 248.31171875 -23.3236328125 239.75 0 249.5166015625 2.1220703125 259.5 4.8 Z"/>

<path fill="#B08843" stroke="none" d="
M 40.15 256.75
L 40.2 256.75
Q 40.521875 256.703515625 40.85 256.65
L 117.4 232.3
Q 74.8005859375 229.253515625 35.05 225.4 -79.1107421875 214.3166015625 -169.65 196.55 -169.5625 196.6267578125 -169.5 196.7
L -143.25 217
Q -142.995703125 217.159765625 -142.75 217.3 -142.512109375 217.4912109375 -142.3 217.65 -141.9134765625 217.88359375 -141.55 218.1 -140.9853515625 218.5068359375 -140.45 218.85 -140.19140625 219.0419921875 -139.95 219.2 -139.68515625 219.38046875 -139.45 219.55 -138.6853515625 220.028515625 -137.95 220.5 -89.894140625 233.6935546875 -32.85 244.45 1.9814453125 251.0634765625 40.15 256.75
M 199.05 166.7
L 198.1 158
Q 166.1685546875 161.440625 135.2 163.6 45.932421875 169.8455078125 -35.15 165.45 -45.2140625 164.9087890625 -55.15 164.2
L 53.3 178
Q 87.5734375 177.4541015625 122.15 174.85 160.4142578125 172.0318359375 199.05 166.7 Z"/>

<path fill="#A68132" stroke="none" d="
M 169.45 -182.85
Q 176.15 -183.4 183 -184.05 107.145703125 -259.55 0 -259.55 -42.9892578125 -259.55 -80.95 -247.4 -6.4 -227.55 70.1 -228.75 -38.7 -211.3 -139.15 -219.7 -138.8412109375 -219.90078125 -138.55 -220.1 -154.04453125 -210.12109375 -168.5 -197.6 -167.718359375 -198.24453125 -166.95 -198.9 -44.1 -164.65 169.45 -182.85
M 109.65 -1.5
Q 133.7953125 -7.256640625 160 -8.05 194.32265625 -65.1771484375 220.05 -138.65 217.618359375 -142.404296875 215.05 -146.1 13.4 -121.8 -160.05 -163.4 -160.7 -163.55 -161.35 -163.7 -177.95 -167.7 -194.2 -172.3 -259.55 -99.6740234375 -259.55 0 -259.55 107.5 -183.55 183.5 -179.3 187.75 -174.95 191.8 -113.466796875 190.57578125 -60 174.1 -136.658203125 167.58984375 -211.8 150.6 -215.95 144.95 -219.7 139.15 -142.3 157.95 -55.15 164.2 -45.2140625 164.9087890625 -35.15 165.45 69.5443359375 124.684375 141.25 21.05 97.3291015625 19.5814453125 37.8 29.7 71.05 7.7 109.65 -1.5
M -190.6 -157.55
Q -179.65 -162.25 -173.05 -157.2 -166.45 -152.15 -168.1 -140.35 -169.75 -128.6 -178.65 -116.95 -187.5 -105.3 -198.45 -100.6 -209.4 -95.95 -216 -101 -222.6 -106.05 -220.95 -117.8 -219.3 -129.6 -210.45 -141.25 -201.55 -152.9 -190.6 -157.55 Z"/>

<path fill="#A57E3A" stroke="none" d="
M 183.5 -183.55
Q 183.249609375 -183.800390625 183 -184.05 176.15 -183.4 169.45 -182.85
L 169.65 -181.45
Q 4.05 -139.05 -160.05 -163.4 13.4 -121.8 215.05 -146.1 210.936328125 -151.9853515625 206.45 -157.75 201.0115234375 -164.6869140625 195 -171.45 194.81953125 -171.6322265625 194.6 -171.85 194.440234375 -172.0626953125 194.25 -172.3 194.060546875 -172.469140625 193.85 -172.7 193.6650390625 -172.9123046875 193.45 -173.15 193.2408203125 -173.3873046875 193 -173.65 192.7966796875 -173.8572265625 192.55 -174.1 192.33515625 -174.344140625 192.1 -174.6 191.88046875 -174.850390625 191.65 -175.1 191.411328125 -175.3453125 191.15 -175.6 190.937109375 -175.8458984375 190.7 -176.1 190.4794921875 -176.3546875 190.25 -176.6 189.9837890625 -176.875 189.7 -177.15 189.462109375 -177.423046875 189.2 -177.7 188.9357421875 -177.9759765625 188.65 -178.25 188.4298828125 -178.5083984375 188.15 -178.8 187.89921875 -179.06484375 187.6 -179.35 187.2255859375 -179.76171875 186.8 -180.2 186.6138671875 -180.405078125 186.4 -180.65 186.0974609375 -180.9208984375 185.8 -181.25 184.9126953125 -182.1328125 184 -183.05 183.765234375 -183.284765625 183.5 -183.55
M 109.65 -1.5
L 109.8 -0.95
Q 134.821875 -3.2130859375 156.6 -2.4 202.5865234375 -0.6951171875 234.15 14.7 246.443359375 20.6814453125 256.55 28.75
L 258.1 28.9
Q 259.3 17.05 259.5 4.8 249.5166015625 2.1220703125 239.75 0 197.737890625 -9.1568359375 160 -8.05 133.7953125 -7.256640625 109.65 -1.5 Z"/>

<path fill="#F6DE9F" stroke="none" d="
M -173.05 -157.2
Q -179.65 -162.25 -190.6 -157.55 -201.55 -152.9 -210.45 -141.25 -219.3 -129.6 -220.95 -117.8 -222.6 -106.05 -216 -101 -209.4 -95.95 -198.45 -100.6 -187.5 -105.3 -178.65 -116.95 -169.75 -128.6 -168.1 -140.35 -166.45 -152.15 -173.05 -157.2 Z"/>
</g>

<g id="Saturn_Self_0_Layer1_0_FILL">
<path fill="#000000" stroke="none" d="
M -2.75 -71.25
Q -6.75 -75.25 -12.45 -75.25 -18.15 -75.25 -22.2 -71.25 -26.2 -67.2 -26.2 -61.5 -26.2 -55.8 -22.2 -51.8 -18.15 -47.75 -12.45 -47.75 -6.75 -47.75 -2.75 -51.8 1.3 -55.8 1.3 -61.5 1.3 -67.2 -2.75 -71.25
M -167.4 -78.35
Q -171.4 -74.3 -171.4 -68.6 -171.4 -62.9 -167.4 -58.9 -163.35 -54.85 -157.65 -54.85 -151.95 -54.85 -147.95 -58.9 -143.9 -62.9 -143.9 -68.6 -143.9 -74.3 -147.95 -78.35 -151.95 -82.35 -157.65 -82.35 -163.35 -82.35 -167.4 -78.35 Z"/>
</g>

<g id="Saturn_Self_0_Layer0_0_FILL">
<path fill="#FFE6AA" fill-opacity="0.4" stroke="none" d="
M 255.55 -52.5
Q 257.8 -53.15 255 -55.05 255.25 -53.8 255.55 -52.5
M 255 -55.05
Q 254.8 -55.7 254.7 -56.3 253.45 -56.45 252.25 -56.6 253.95 -55.75 255 -55.05 Z"/>

<path fill="#FFE49E" fill-opacity="0.4" stroke="none" d="
M 250 -75.1
Q 252.3 -66.85 254.7 -56.3 413.3 -38.2 469.1 -17.25 490.95 -9.1 494.15 -3.5 497.3 2.1 493.2 12.4 489.05 22.65 424.65 44.7 270.05 87.95 -24.15 97.55 -122.25 100.4 -203.9 98 -349.25 93.65 -422.6 73.75 -470.6 60.65 -470.1 45.8 -470 42.3 -467.35 39 -460.3 29.15 -420.4 9.25 -380.5 -10.65 -257.45 -37.5
L -257.45 -37.4
Q -257.25 -37.6 -253.5 -55.35 -332.8 -44.45 -400.2 -28.55 -565 10.45 -562.2 56.45 -559.55 102.5 -390.8 128.7 -265.5 148.1 -102.95 148.1 -46.95 148.1 13.45 145.85 249.1 136.8 413.95 97.9 578.7 58.95 575.95 12.95 573.2 -33.1 404.65 -59.25 333.3 -70.35 250 -75.1 Z"/>

<path fill="#FFDC82" fill-opacity="0.4470588235294118" stroke="none" d="
M 254.7 -56.3
Q 254.8 -55.7 255 -55.05 257.8 -53.15 255.55 -52.5 256.7 -47 257.95 -40.95 258.75 -40.85 259.6 -40.75 365.9 -27.9 367.1 -2.85 368.25 21.9 263.65 44.35 159.05 66.85 9.9 73.75 -139.2 80.5 -245.55 67.6 -351.8 54.8 -352.95 29.9 -354.15 6.05 -259.15 -15.4 -259 -18.2 -257.45 -37.4
L -257.45 -37.5
Q -380.5 -10.65 -420.4 9.25 -460.3 29.15 -467.35 39 -470 42.3 -470.1 45.8 -470.6 60.65 -422.6 73.75 -349.25 93.65 -203.9 98 -122.25 100.4 -24.15 97.55 270.05 87.95 424.65 44.7 489.05 22.65 493.2 12.4 497.3 2.1 494.15 -3.5 490.95 -9.1 469.1 -17.25 413.3 -38.2 254.7 -56.3 Z"/>
</g>

<path id="Saturn_Self_0_Layer1_0_1_STROKES" stroke="#000000" stroke-width="5" stroke-linejoin="round" stroke-linecap="round" fill="none" d="
M -111.4 -40.9
Q -101.7 -24.25 -78.65 -40.9"/>
</defs>

<g transform="matrix( 0.2625274658203125, 0, 0, 0.2625274658203125, 147.6,143.6) ">
<g transform="matrix( 1, 0, 0, 1, 0,0) ">
<use xlink:href="#Saturn_Self_0_Layer2_0_FILL"/>
</g>

<g transform="matrix( 1, 0, 0, 1, 0,0) ">
<use xlink:href="#Saturn_Self_0_Layer1_0_FILL"/>

<use xlink:href="#Saturn_Self_0_Layer1_0_1_STROKES"/>
</g>

<g transform="matrix( 1, 0, 0, 1, 0,0) ">
<use xlink:href="#Saturn_Self_0_Layer0_0_FILL"/>
</g>
</g>
</svg>
