
<svg xmlns="http://www.w3.org/2000/svg" version="1.1" xmlns:xlink="http://www.w3.org/1999/xlink" preserveAspectRatio="none" x="0px" y="0px" width="300px" height="300px" viewBox="0 0 300 300">
<defs>
<g id="Layer4_0_FILL">
<path fill="#E8CA7B" stroke="none" d="
M 99.3 182.35
Q 95.2869140625 182.23125 91.35 182.05
L 91.75 182.6
Q 92.025 182.975 92.3 183.35 111.9 187.8 131.95 189.45 146.6 190.7 161.5 190.5
L 133.2 186.9
Q 115.49140625 185.615625 99.3 182.35
M 191.9 96.6
L 191.85 96.25
Q 136.1 101 104 92.05 103.7998046875 92.22421875 103.6 92.4
L 100.85 94.9
Q 100.8 94.95 100.75 95 100.25 95.45 99.8 95.95 99.7 96 99.65 96.05 99.3 96.4 98.95 96.8 98.3 97.45 97.7 98.1 97.3 98.55 96.85 99 101.1 100.2 105.45 101.25 105.65 101.3 105.8 101.3 148.65 107.7 191.9 96.6 Z"/>

<path fill="#A68132" stroke="none" d="
M 199.35 185.25
L 199.6 187.55
Q 203.5189453125 182.961328125 206.45 177.95 198.3779296875 178.9146484375 189.85 179.65 171.4904296875 181.321484375 151.1 182.1 150.1501953125 182.1361328125 149.2 182.15 134.4666015625 182.7 120.7 182.7 109.66796875 182.7 99.3 182.35 115.49140625 185.615625 133.2 186.9 135.8 187.05 138.4 187.2 159.6 188.35 182.95 186.75 191 186.15 199.35 185.25
M 205.1 107.8
Q 204.45 106.8 203.75 105.85 151.1 112.2 105.8 101.3 105.65 101.3 105.45 101.25 101.1 100.2 96.85 99 84.71875 112.4830078125 81.2 129.55 81.3123046875 129.562109375 81.4 129.55 80.8095703125 132.2958984375 80.55 133.45 80.347265625 134.8447265625 80.2 136.25 79.998046875 138.1150390625 79.9 140 79.8 141.9787109375 79.8 144 79.8 153.1666015625 81.9 161.45 82.669140625 161.5556640625 83.45 161.65 111.25 165.05 150.2 163.25 163.232421875 162.64765625 174.95 161.6 190.7951171875 160.160546875 204.25 157.9 206.7958984375 157.4802734375 209.25 157 207.70546875 155.70546875 205.85 154.6 198 149.95 184.5 149.5 173.05 149.1 157.45 151.75 166.15 146 176.25 143.6 182.55 142.1 189.4 141.9 199.25 141.6 210.25 144 212.75 144.55 215.4 145.25 215.4 144.62578125 215.4 144 215.4 137.4 214.3 131.25 214.1365234375 130.346875 213.95 129.45 213.757421875 129.34296875 213.5 129.2 213.6947265625 129.232421875 213.9 129.25 211.45859375 117.7064453125 205.1 107.8
M 158.1 211.05
Q 148.1 209.55 139.05 207.85 124.1 205.05 111.55 201.6 119.6 206.75 128.7 209.3 137.6 211.8 147.6 211.8 153 211.8 158.1 211.05
M 199.6 187.55
Q 189.5 188.95 179.5 189.7 170.45 190.35 161.5 190.5 146.6 190.7 131.95 189.45 111.9 187.8 92.3 183.35 92.025 182.975 91.75 182.6 95.1912109375 187.4912109375 99.65 191.95 100.75 193.05 101.9 194.1 102.6 194.75 103.3 195.35 126.95 200 156.75 202.85 167.15 203.9 178.25 204.7 187.55 199.9 195.55 191.95 197.65 189.8 199.6 187.55
M 191.85 96.25
Q 193.6 96.1 195.4 95.95 175.6 76.2 147.6 76.2 136.35 76.2 126.45 79.4 145.95 84.55 165.9 84.25 137.5 88.8 111.25 86.6 107.4955078125 89.02265625 104 92.05 136.1 101 191.85 96.25 Z"/>

<path fill="#FFE699" stroke="none" d="
M 214.15 129.3
Q 214.15 129.45 214.2 129.6 214.95 130.1 214.35 130.3 214.65 131.7 215 133.3 215.2 133.35 215.4 133.35 243.15 136.7 243.5 143.25 243.8 149.7 216.45 155.6 215.4080078125 155.8232421875 214.35 156.05 211.8470703125 156.5513671875 209.25 157 206.7958984375 157.4802734375 204.25 157.9 190.7951171875 160.160546875 174.95 161.6 163.232421875 162.64765625 150.2 163.25 111.25 165.05 83.45 161.65 82.669140625 161.5556640625 81.9 161.45 55.6916015625 158.1171875 55.4 151.8 55.1 145.6 79.9 140 79.998046875 138.1150390625 80.2 136.25 80.2607421875 135.365234375 80.35 134.25
L 80.35 134.2
Q 48.2 141.2 37.8 146.4 27.35 151.6 25.55 154.2 24.85 155.05 24.8 155.95 24.7 159.85 37.2 163.25 53.8041015625 167.746875 84.4 169.2 89.2189453125 169.44453125 94.35 169.6 115.65 170.2 141.3 169.5 155.469140625 169.0298828125 168.4 168.25 185.21171875 167.26953125 199.9 165.75 206.4068359375 165.1068359375 212.45 164.35 239.525 160.9904296875 258.5 155.7 275.35 149.9 276.4 147.25 277.5 144.55 276.65 143.1 275.85 141.6 270.15 139.5 255.55 134 214.15 129.3 Z"/>

<path fill="#FFE6AA" fill-opacity="0.4" stroke="none" d="
M 214.15 129.3
Q 214.0271484375 129.282421875 213.9 129.25 213.6947265625 129.232421875 213.5 129.2 213.757421875 129.34296875 213.95 129.45 214.09296875 129.5357421875 214.2 129.6 214.15 129.45 214.15 129.3
M 214.2 129.6
Q 214.25 129.95 214.35 130.3 214.95 130.1 214.2 129.6 Z"/>

<path fill="#FFF1BA" stroke="none" d="
M 212.9 124.4
Q 213.5 126.55 214.15 129.3 255.55 134 270.15 139.5 275.85 141.6 276.65 143.1 277.5 144.55 276.4 147.25 275.35 149.9 258.5 155.7 239.525 160.9904296875 212.45 164.35 206.4068359375 165.1068359375 199.9 165.75 185.21171875 167.26953125 168.4 168.25 155.469140625 169.0298828125 141.3 169.5 115.65 170.2 94.35 169.6 89.2189453125 169.44453125 84.4 169.2 53.8041015625 167.746875 37.2 163.25 24.7 159.85 24.8 155.95 24.85 155.05 25.55 154.2 27.35 151.6 37.8 146.4 48.2 141.2 80.35 134.2
L 80.35 134.25
Q 80.3705078125 134.2294921875 80.55 133.45 80.8095703125 132.2958984375 81.4 129.55 81.3123046875 129.562109375 81.2 129.55 60.5755859375 132.417578125 43.05 136.55 0 146.75 0.75 158.75 1.45 170.75 45.5 177.6 66.4470703125 180.8619140625 91.35 182.05 95.2869140625 182.23125 99.3 182.35 109.66796875 182.7 120.7 182.7 134.4666015625 182.7 149.2 182.15 150.1501953125 182.1361328125 151.1 182.1 171.4904296875 181.321484375 189.85 179.65 198.3779296875 178.9146484375 206.45 177.95 233.5359375 174.8013671875 255.7 169.55 298.75 159.4 298.05 147.4 297.3 135.35 253.3 128.5 234.65 125.6 212.9 124.4 Z"/>

<path fill="#B08843" stroke="none" d="
M 103.3 195.35
L 103.35 195.4 110.2 200.7
Q 110.25 200.7 110.3 200.75 110.4 200.8 110.45 200.85 110.55 200.9 110.65 201 110.75 201.05 110.95 201.2 111 201.2 111.05 201.25 111.1 201.3 111.2 201.35 111.35 201.5 111.55 201.6 124.1 205.05 139.05 207.85 148.1 209.55 158.1 211.05 158.2 211.05 158.25 211.05
L 178.25 204.7
Q 167.15 203.9 156.75 202.85 126.95 200 103.3 195.35
M 179.5 189.7
Q 189.5 188.95 199.6 187.55
L 199.35 185.25
Q 191 186.15 182.95 186.75 159.6 188.35 138.4 187.2 135.8 187.05 133.2 186.9
L 161.5 190.5
Q 170.45 190.35 179.5 189.7 Z"/>

<path fill="#C6A859" stroke="none" d="
M 111.4 86.5
Q 111.32421875 86.5486328125 111.25 86.6 137.5 88.8 165.9 84.25 145.95 84.55 126.45 79.4 124.2 80.1 122.05 81
L 111.4 86.5
M 188.5 143.35
Q 182.8 143.15 176.3 143.75
L 176.25 143.6
Q 166.15 146 157.45 151.75 173.05 149.1 184.5 149.5 198 149.95 205.85 154.6 207.70546875 155.70546875 209.25 157 211.8470703125 156.5513671875 214.35 156.05
L 214.7 154.1
Q 214.875390625 152.846875 215 151.55
L 214.6 151.5
Q 211.95 149.4 208.75 147.85 200.5 143.8 188.5 143.35 Z"/>

<path fill="#8C5F1E" stroke="none" d="
M 214.7 154.1
Q 214.9892578125 152.1986328125 215.15 150.2 215.07421875 150.8923828125 215 151.55 214.875390625 152.846875 214.7 154.1 Z"/>

<path fill="#A57E3A" stroke="none" d="
M 215.35 146.2
Q 215.3921875 145.734765625 215.4 145.25 212.75 144.55 210.25 144 199.25 141.6 189.4 141.9 182.55 142.1 176.25 143.6
L 176.3 143.75
Q 182.8 143.15 188.5 143.35 200.5 143.8 208.75 147.85 211.95 149.4 214.6 151.5
L 215 151.55
Q 215.07421875 150.8923828125 215.15 150.2
L 215.35 146.2
M 191.85 96.25
L 191.9 96.6
Q 148.65 107.7 105.8 101.3 151.1 112.2 203.75 105.85 202.7 104.3 201.5 102.8 200.1 101 198.55 99.25 198.5 99.15 198.45 99.1 198.4 99.05 198.35 99 198.3 98.95 198.25 98.9 198.2 98.85 198.15 98.75 198.1 98.7 198 98.65 197.95 98.6 197.9 98.55 197.85 98.45 197.8 98.4 197.7 98.35 197.65 98.25 197.6 98.2 197.55 98.15 197.5 98.05 197.4 98 197.35 97.95 197.3 97.85 197.25 97.8 197.15 97.75 197.1 97.65 197 97.6 196.95 97.5 196.9 97.45 196.8 97.4 196.75 97.3 196.7 97.25 196.6 97.15 196.5 97.05 196.4 96.95 196.35 96.9 196.3 96.85 196.2 96.75 196.15 96.65 195.9 96.4 195.65 96.2 195.6 96.1 195.55 96.05 195.45 96 195.4 95.95 193.6 96.1 191.85 96.25 Z"/>
</g>
</defs>

<g transform="matrix( 1, 0, 0, 1, 0,0) ">
<use xlink:href="#Layer4_0_FILL"/>
</g>
</svg>
