
<svg xmlns="http://www.w3.org/2000/svg" version="1.1" xmlns:xlink="http://www.w3.org/1999/xlink" preserveAspectRatio="none" x="0px" y="0px" width="300px" height="300px" viewBox="0 0 300 300">
<defs>
<g id="Layer0_0_FILL">
<path fill="#FF9900" stroke="none" d="
M 150.1 -0.5
L 149.45 -0.5
Q 144.9 14.9 127.95 30.05 110.65 22 96.75 9.15
L 96.15 9.4
Q 95.8 26.45 86.6 49.5 86.1 49.5 85.6 49.5 63.95 50.1 43.8 43.35
L 43.3 43.8
Q 49.4 58.1 50.8 80.05 27.4 89.1 12.95 87.9
L 12.65 88.5
Q 26 99.95 32.95 124.75 14.1 144.4 -0.35 149.55
L -0.35 150.2
Q 15 154.7 30.05 171.55 20.15 193.7 9.3 202.85
L 9.55 203.5
Q 27.05 202.15 49.5 214.75 50.05 242 43.45 255.85
L 43.95 256.35
Q 58 248.65 80.6 249.9 89.2 272.6 88.05 286.7
L 88.65 287
Q 100.1 273.55 125.05 266.65 140.4 281.3 149.7 300
L 150.35 300
Q 156.15 285.6 170.7 269.1 193.6 279.25 203 290.3
L 203.65 290.1
Q 202.3 272.55 214.9 250.1 242.15 249.55 256 256.15
L 256.5 255.7
Q 248.75 241.6 250.05 218.85 267.95 212.3 286.85 211.55
L 287.1 210.95
Q 275.3 198.7 265.55 175.9 280.7 159.65 300.15 149.95
L 300.15 149.3
Q 285.7 143.45 269.1 128.9 277.2 110.9 290.45 96.6
L 290.2 96
Q 273.2 95.65 250.15 86.45 249.35 64.25 256.3 43.65
L 255.8 43.15
Q 241.5 49.3 219.45 50.7 212.5 32.25 211.7 12.8
L 211.1 12.5
Q 198.9 24.3 176.2 34.05 155.4 14.4 150.1 -0.5
M 212.05 74.75
Q 241.05 103.75 241.05 144.75 241.05 185.75 212.05 214.75 183.05 243.75 142.05 243.75 101.05 243.75 72.05 214.75 43.05 185.75 43.05 144.75 43.05 103.75 72.05 74.75 101.05 45.75 142.05 45.75 183.05 45.75 212.05 74.75 Z"/>

<path fill="#FFCC00" stroke="none" d="
M 241.05 144.75
Q 241.05 103.75 212.05 74.75 183.05 45.75 142.05 45.75 101.05 45.75 72.05 74.75 43.05 103.75 43.05 144.75 43.05 185.75 72.05 214.75 101.05 243.75 142.05 243.75 183.05 243.75 212.05 214.75 241.05 185.75 241.05 144.75
M 85.3 76.75
Q 86.5 78.8 84.75 83.35 83 87.7 79.45 92.1 75.85 96.45 72.25 98.55 68.55 100.75 66.8 99.35 65 97.9 66.5 93.35 68 88.6 72.1 83.6 76.2 78.55 80.15 76.55 84 74.65 85.3 76.75 Z"/>

<path fill="#FFFF33" stroke="none" d="
M 84.75 83.35
Q 86.5 78.8 85.3 76.75 84 74.65 80.15 76.55 76.2 78.55 72.1 83.6 68 88.6 66.5 93.35 65 97.9 66.8 99.35 68.55 100.75 72.25 98.55 75.85 96.45 79.45 92.1 83 87.7 84.75 83.35 Z"/>
</g>
</defs>

<g transform="matrix( 1, 0, 0, 1, 0,0) ">
<use xlink:href="#Layer0_0_FILL"/>
</g>
</svg>
