
<svg xmlns="http://www.w3.org/2000/svg" version="1.1" xmlns:xlink="http://www.w3.org/1999/xlink" preserveAspectRatio="none" x="0px" y="0px" width="300px" height="300px" viewBox="0 0 300 300">
<defs>
<g id="Sun_Self_0_Layer1_0_FILL">
<path fill="#FF9900" stroke="none" d="
M 95 -416.75
Q 19.9 -487.75 0.8 -541.65
L -1.65 -541.65
Q -18 -485.9 -79.3 -431.2 -141.95 -460.15 -192.05 -506.6
L -194.35 -505.75
Q -195.5 -444.2 -228.8 -360.85 -230.65 -360.8 -232.45 -360.75 -310.7 -358.6 -383.55 -383.1
L -385.3 -381.35
Q -363.25 -329.75 -358.15 -250.45 -442.85 -217.7 -495.1 -222.05
L -496.1 -219.8
Q -447.85 -178.55 -422.75 -88.75 -490.95 -17.75 -543.2 0.75
L -543.2 3.2
Q -487.65 19.45 -433.15 80.35 -469.1 160.35 -508.2 193.55
L -507.3 195.8
Q -444 190.9 -362.85 236.55 -360.85 335.05 -384.75 385.1
L -383 386.85
Q -332.2 359.05 -250.5 363.55 -219.35 445.55 -223.6 496.6
L -221.35 497.6
Q -179.95 449.15 -89.75 424.1 -34.35 477.15 -0.8 544.75
L 1.65 544.75
Q 22.6 492.6 75.1 432.95 158.05 469.65 191.95 509.65
L 194.25 508.8
Q 189.35 445.5 235 364.35 333.45 362.35 383.5 386.25
L 385.25 384.5
Q 357.35 333.5 362 251.4 426.75 227.6 495 225
L 496 222.8
Q 453.35 178.45 418 96.1 472.75 37.35 543.2 2.35
L 543.2 -0.1
Q 490.85 -21.15 430.95 -73.9 460.25 -138.85 508.05 -190.5
L 507.15 -192.75
Q 445.7 -193.95 362.4 -227.25 359.55 -307.45 384.6 -381.95
L 382.85 -383.7
Q 331.05 -361.6 251.4 -356.55 226.2 -423.15 223.45 -493.5
L 221.25 -494.5
Q 177.05 -452 95 -416.75 Z"/>
</g>

<g id="Sun_Self_0_Layer0_0_FILL">
<path fill="#FFCC00" stroke="none" d="
M 329.5 -16.5
Q 329.5 -164.8 224.7 -269.55 119.9 -374.35 -28.35 -374.35 -176.6 -374.35 -281.35 -269.55 -386.15 -164.8 -386.15 -16.5 -386.15 131.75 -281.35 236.5 -176.6 341.3 -28.35 341.3 119.9 341.3 224.7 236.5 329.5 131.75 329.5 -16.5
M 53.25 -114.3
L 55.85 -114.05 53.25 -114.3 53.15 -113.65
Q 42.95 0.9 -38.3 -5.5
L -40.7 -5.5
Q -138.3 -14.6 -108.3 -127.15
L -107.95 -130.3 -180.35 -137.5 -180.45 -136.65
Q -185.9 -28.1 -259 -33.45 -353.4 -39.45 -311.5 -150.55
L -311.25 -150.5 -180.35 -137.5 -107.95 -130.3 53.25 -114.3
M -301.55 -202.4
Q -296 -219.55 -281.25 -237.65 -266.4 -255.85 -252.05 -263.1 -238.2 -270 -233.55 -262.25 -229.1 -254.95 -235.5 -238.5 -241.75 -222.75 -254.7 -206.85 -267.7 -191.1 -280.65 -183.55 -294.15 -175.55 -300.35 -180.6 -306.9 -185.95 -301.55 -202.4
M -200.95 11.15
Q -172.5 34.95 -134.5 20 -172.5 34.95 -200.95 11.15 Z"/>

<path fill="#FFFF33" stroke="none" d="
M -281.25 -237.65
Q -296 -219.55 -301.55 -202.4 -306.9 -185.95 -300.35 -180.6 -294.15 -175.55 -280.65 -183.55 -267.7 -191.1 -254.7 -206.85 -241.75 -222.75 -235.5 -238.5 -229.1 -254.95 -233.55 -262.25 -238.2 -270 -252.05 -263.1 -266.4 -255.85 -281.25 -237.65 Z"/>

<path fill="#000000" stroke="none" d="
M -180.45 -136.65
L -180.35 -137.5 -311.25 -150.5 -311.5 -150.55
Q -353.4 -39.45 -259 -33.45 -185.9 -28.1 -180.45 -136.65
M 53.15 -113.65
L 53.25 -114.3 -107.95 -130.3 -108.3 -127.15
Q -138.3 -14.6 -40.7 -5.5
L -38.3 -5.5
Q 42.95 0.9 53.15 -113.65 Z"/>
</g>

<path id="Sun_Self_0_Layer0_0_1_STROKES" stroke="#000000" stroke-width="8" stroke-linejoin="round" stroke-linecap="round" fill="none" d="
M 53.25 -114.3
L 55.85 -114.05
M -38.3 -5.5
Q 42.95 0.9 53.15 -113.65
M -108.3 -127.15
Q -138.3 -14.6 -40.7 -5.5
M -180.35 -137.5
L -107.95 -130.3
M -180.45 -136.65
Q -185.9 -28.1 -259 -33.45 -353.4 -39.45 -311.5 -150.55
M -311.25 -150.5
L -180.35 -137.5
M -200.95 11.15
Q -172.5 34.95 -134.5 20
M -107.95 -130.3
L 53.25 -114.3"/>
</defs>

<g transform="matrix( 0.2617645263671875, 0, 0, 0.2617645263671875, 149.65,149.8) ">
<g transform="matrix( 1, 0, 0, 1, 0,0) ">
<use xlink:href="#Sun_Self_0_Layer1_0_FILL"/>
</g>

<g transform="matrix( 1, 0, 0, 1, 0,0) ">
<use xlink:href="#Sun_Self_0_Layer0_0_FILL"/>

<use xlink:href="#Sun_Self_0_Layer0_0_1_STROKES"/>
</g>
</g>
</svg>
