
<svg xmlns="http://www.w3.org/2000/svg" version="1.1" xmlns:xlink="http://www.w3.org/1999/xlink" preserveAspectRatio="none" x="0px" y="0px" width="300px" height="300px" viewBox="0 0 300 300">
<defs>
<g id="Uranus_Self_0_Layer2_0_FILL">
<path fill="#5D8EC1" stroke="none" d="
M -160.5 253.25
Q -143.45625 263.76796875 -124.45 272.45 -99.25 284 -73.8 290.75 -12.1671875 226.733984375 39.65 153 -41.90703125 228.76484375 -160.5 253.25
M 273.2 -123.1
Q 264.9177734375 -141.8447265625 254.65 -158.8 187.65 46.6 66.8 223.7 57.663671875 237.1033203125 48.2 250.35 120.94765625 200.0626953125 172.7 124.1 181.6244140625 109.4748046875 191.4 94.65 245.9642578125 2.5041015625 273.2 -123.1
M 216.35 -207.2
Q 214.123046875 -209.526953125 211.8 -211.85
L 204.65 -212.9
Q 198.5888671875 -172.0716796875 190 -134.75
L 190.8 -134.6
Q 204.32265625 -170.1341796875 216.35 -207.2 Z"/>

<path fill="#C1E8F8" stroke="none" d="
M -119 -171.6
Q -240.85 -0.65 -249.15 -20.9 -272.5392578125 12.912109375 -296.4 45.9 -296.4380859375 46.0140625 -296.5 46.1 -296.002734375 49.0494140625 -295.45 52 -293.531640625 62.0994140625 -290.9 72.2 -201.55 -43.6 -119 -171.6
M -166.2 -249.9
Q -166.191015625 -249.9435546875 -166.2 -250 -179.5 -241.3 -191.6 -231.35 -191.7216796875 -230.825390625 -191.85 -230.3 -203.7947265625 -181.5892578125 -281.7 -102.2 -287.05 -87.85 -290.8 -73.5 -159.36875 -205.7302734375 -166.2 -249.9
M 190.8 -134.6
Q 189.76875 -131.8982421875 188.7 -129.2 128.694140625 26.2564453125 39.65 153 -12.1671875 226.733984375 -73.8 290.75 -68.4591796875 292.1818359375 -63.1 293.4 -26.239453125 301.821875 11.05 300.25 11.3994140625 299.8001953125 11.75 299.35 30.530859375 275.1283203125 48.2 250.35 57.663671875 237.1033203125 66.8 223.7 162.65 40.75 190.8 -134.6 Z"/>

<path fill="#6797BB" stroke="none" d="
M -191.85 -230.3
Q -202.0767578125 -221.617578125 -211.85 -211.85 -230.275 -193.414453125 -244.85 -173.4 -260.404296875 -150.8126953125 -272.45 -124.45 -277.5 -113.3 -281.7 -102.2 -203.7947265625 -181.5892578125 -191.85 -230.3
M -104.65 -280.65
Q -112.25 -277.8 -119.7 -274.65 -139.5744140625 -180.3708984375 -296.05 -48.2 -299.55 -24.8189453125 -299.55 0 -299.55 23.623828125 -296.4 45.9 -272.5392578125 12.912109375 -249.15 -20.9 -160.45 -149.5 -78.8 -289.15 -91.7 -285.45 -104.65 -280.65 Z"/>

<path fill="#8ED5E7" stroke="none" d="
M -166.2 -250
Q -166.191015625 -249.9435546875 -166.2 -249.9 -159.36875 -205.7302734375 -290.8 -73.5 -292.32890625 -67.80546875 -293.65 -62.15 -295.225 -54.9775390625 -296.45 -47.85 -296.2490234375 -48.0197265625 -296.05 -48.2 -139.5744140625 -180.3708984375 -119.7 -274.65 -142.6005859375 -264.8353515625 -162.8 -252.2 -164.5015625 -251.0982421875 -166.2 -250
M -52.4 -295.4
Q -65.5751953125 -292.88828125 -78.8 -289.15 -160.45 -149.5 -249.15 -20.9 -240.85 -0.65 -119 -171.6 -79.4888671875 -232.8623046875 -41.55 -297 -41.4353515625 -297.105859375 -41.35 -297.25 -46.860546875 -296.4248046875 -52.4 -295.4
M 187.55 -233.9
Q 187.6220703125 -234.11171875 187.7 -234.35 180.1390625 -240.2521484375 172.1 -245.75 159.343359375 -254.4333984375 145.4 -262.05 122 -136.45 67.2 27.1 146.0517578125 -107.09765625 187.55 -233.9 Z"/>

<path fill="#416DAD" stroke="none" d="
M 48.2 250.35
Q 30.530859375 275.1283203125 11.75 299.35 34.1826171875 298.583203125 55.4 294.85 77.6404296875 290.403515625 100 282.4 123.0568359375 205.59453125 172.7 124.1 120.94765625 200.0626953125 48.2 250.35
M 280.7 -104.6
Q 277.179296875 -114.0427734375 273.2 -123.1 245.9642578125 2.5041015625 191.4 94.65 216.2970703125 57.0248046875 246.75 18.4 172.1234375 155.183203125 153.4 251.35
L 161.4 253
Q 187.9603515625 235.653125 211.8 211.8 231.624609375 191.98671875 246.95 170.3 261.228515625 149.046875 272.45 124.5 286.204296875 94.405859375 293.2 64.05 299.55 33.3515625 299.55 0 299.55 -27.4697265625 295.25 -53.15 290.331640625 -78.7822265625 280.7 -104.6 Z"/>

<path fill="#4874B5" stroke="none" d="
M 153.35 251.5
L 161.4 253 153.4 251.35
Q 153.391796875 251.43828125 153.35 251.5 Z"/>

<path fill="#405C96" stroke="none" d="
M 152.05 258.7
Q 155.85 256.45 159.6 254.15 160.519140625 253.5892578125 161.4 253
L 153.35 251.5
Q 153.2353515625 252.2392578125 153.1 252.95 152.55 255.844140625 152.05 258.7 Z"/>

<path fill="#A0D1EE" stroke="none" d="
M 191.4 94.65
Q 181.6244140625 109.4748046875 172.7 124.1 123.0568359375 205.59453125 100 282.4 102.3 281.6 104.65 280.75 129.85 271.3 152.05 258.7 152.55 255.844140625 153.1 252.95 153.2353515625 252.2392578125 153.35 251.5 153.391796875 251.43828125 153.4 251.35 172.1234375 155.183203125 246.75 18.4 216.2970703125 57.0248046875 191.4 94.65
M 216.7 -208.15
Q 216.5421875 -207.6640625 216.35 -207.2 204.32265625 -170.1341796875 190.8 -134.6 162.65 40.75 66.8 223.7 187.65 46.6 254.65 -158.8 253.7234375 -160.3234375 252.75 -161.85 236.9890625 -187.105859375 216.7 -208.15 Z"/>

<path fill="#4F78A7" stroke="none" d="
M 188.7 -129.2
Q 189.76875 -131.8982421875 190.8 -134.6
L 190 -134.75
Q 189.37578125 -131.95390625 188.7 -129.2
M 211.8 -211.85
Q 208.6 -215.05 205.4 -218.1 205.02578125 -215.49375 204.65 -212.9
L 211.8 -211.85 Z"/>

<path fill="#6FA9D4" stroke="none" d="
M 204.65 -212.9
Q 205.02578125 -215.49375 205.4 -218.1 196.646484375 -226.409765625 187.55 -233.9 146.0517578125 -107.09765625 67.2 27.1 122 -136.45 145.4 -262.05 135.3 -267.5 124.5 -272.45 98.6 -284.25 72.55 -291.15 68.4974609375 -292.2052734375 64.45 -293.15 33.5490234375 -299.55 0 -299.55 -21.2958984375 -299.55 -41.55 -297 -79.4888671875 -232.8623046875 -119 -171.6 -201.55 -43.6 -290.9 72.2 -286.75 88.45 -280.7 104.7 -269.05234375 135.8859375 -252.4 162.4 -235.246484375 188.403515625 -211.85 211.8 -192.66171875 230.98828125 -171.7 246 -166.2078125 249.730859375 -160.5 253.25 -41.90703125 228.76484375 39.65 153 128.694140625 26.2564453125 188.7 -129.2 189.37578125 -131.95390625 190 -134.75 198.5888671875 -172.0716796875 204.65 -212.9 Z"/>
</g>

<g id="Uranus_Self_0_Layer1_0_FILL">
<path fill="#000000" stroke="none" d="
M -44 -39
Q -51.05 -39 -56.1 -34 -61.1 -28.95 -61.1 -21.9 -61.1 -14.8 -56.1 -9.85 -51.05 -4.8 -44 -4.8 -36.9 -4.8 -31.9 -9.85 -26.9 -14.8 -26.9 -21.9 -26.9 -28.95 -31.9 -34 -36.9 -39 -44 -39
M -167.2 -45.55
Q -174.25 -45.55 -179.3 -40.55 -184.3 -35.5 -184.3 -28.45 -184.3 -21.35 -179.3 -16.4 -174.25 -11.35 -167.2 -11.35 -160.1 -11.35 -155.1 -16.4 -150.1 -21.35 -150.1 -28.45 -150.1 -35.5 -155.1 -40.55 -160.1 -45.55 -167.2 -45.55 Z"/>

<path fill="#DAF4FF" stroke="none" d="
M -228.1 -100.1
Q -223.2 -113.5 -225.7 -125.2 -228.25 -136.8 -236.75 -139.9 -245.2 -143.05 -254.65 -135.85 -264.15 -128.55 -269.05 -115.15 -274 -101.8 -271.45 -90.15 -268.95 -78.5 -260.5 -75.35 -252 -72.25 -242.5 -79.5 -233.05 -86.75 -228.1 -100.1 Z"/>
</g>

<g id="Uranus_Self_0_Layer0_0_FILL">
<path fill="#8DBCD7" fill-opacity="0.2" stroke="none" d="
M 91.2 -285.85
L 123.75 -274.65
Q 178.8423828125 -308.6583984375 204.8 -294.4 241.05 -274.4 198.6 -173 156 -71.35 60.95 49.05 -32.55 167.4 -120.3 232.15 -205.8 295.2 -236 270.35 -260.28984375 250.32734375 -237.5 182.3
L -255.9 157.8
Q -280.0923828125 199.5583984375 -299.3 239.1 -370 384.7 -331.4 415.15 -292.8 445.65 -151.2 348.25 -9.6 250.75 124.2 73.8 258.05 -103.05 317.2 -252.25 376.3 -401.5 337.7 -432 299.1 -462.45 173.75 -359.9 133.1865234375 -326.691015625 91.2 -285.85 Z"/>
</g>

<path id="Uranus_Self_0_Layer1_0_1_STROKES" stroke="#000000" stroke-width="5" stroke-linejoin="round" stroke-linecap="round" fill="none" d="
M -131.5 18.2
Q -116.43203125 43.70546875 -87.05 19.2"/>
</defs>

<g transform="matrix( 0.3472900390625, 0, 0, 0.3472900390625, 151.75,152.95) ">
<g transform="matrix( 1, 0, 0, 1, 0,0) ">
<use xlink:href="#Uranus_Self_0_Layer2_0_FILL"/>
</g>

<g transform="matrix( 1, 0, 0, 1, 0,0) ">
<use xlink:href="#Uranus_Self_0_Layer1_0_FILL"/>

<use xlink:href="#Uranus_Self_0_Layer1_0_1_STROKES"/>
</g>

<g transform="matrix( 1, 0, 0, 1, 0,0) ">
<use xlink:href="#Uranus_Self_0_Layer0_0_FILL"/>
</g>
</g>
</svg>
