
<svg xmlns="http://www.w3.org/2000/svg" version="1.1" xmlns:xlink="http://www.w3.org/1999/xlink" preserveAspectRatio="none" x="0px" y="0px" width="300px" height="300px" viewBox="0 0 300 300">
<defs>
<g id="Layer3_0_FILL">
<path fill="#6FA9D4" stroke="none" d="
M 205.9 241.5
L 203.15 241
Q 203.1 241.25 203.05 241.5 202.85 242.5 202.7 243.45 204 242.7 205.25 241.9 205.6 241.7 205.9 241.5
M 241.35 106.2
Q 234.544921875 118.8484375 226.35 131.95 205.358984375 184.5896484375 173.4 231.45 170.25 236.05 167 240.6 160.95 249.1 154.5 257.4 162.2 257.15 169.5 255.9 177.1 254.35 184.8 251.6 192.7 225.2 209.75 197.25 212.85 192.2 216.2 187.15 224.75 174.2 235.2 160.9 209.55 207.9 203.15 240.95
L 205.9 241.5
Q 215 235.55 223.2 227.35 230 220.55 235.3 213.1 240.2 205.8 244.05 197.35 248.75 187 251.15 176.6 253.35 166.05 253.35 154.6 253.35 145.15 251.9 136.35 250.2 127.55 246.85 118.65 245.65 115.45 244.3 112.35 242.917578125 109.2212890625 241.35 106.2
M 200.4 64.6
Q 196.9 62.7 193.2 61 184.3 56.95 175.35 54.6 174 54.25 172.6 53.9 161.95 51.7 150.45 51.7 143.15 51.7 136.2 52.6 123.15 74.6 109.6 95.65 81.2 139.6 50.55 179.4 51.95 185 54.05 190.55 58.05 201.3 63.75 210.4
L 68.85 217.25
Q 68.82890625 217.3134765625 68.8 217.35 72.8666015625 222.5166015625 77.7 227.35 84.3 233.95 91.5 239.1 93.35 240.4 95.3 241.6 97.7884765625 241.083984375 100.2 240.5 104.444921875 237.8146484375 109.15 234.35 139.25 212.1 171.4 171.45 203.6513671875 130.6046875 218.3 96.05 219.633203125 88.921484375 220.75 81.45 220.9 80.6 221 79.7 218 76.85 214.85 74.3 200.6 117.8 173.55 163.9 192.35 107.75 200.4 64.6 Z"/>

<path fill="#4874B5" stroke="none" d="
M 205.9 241.5
L 203.15 240.95 203.15 241 205.9 241.5 Z"/>

<path fill="#5D8EC1" stroke="none" d="
M 124.4 254.25
Q 124.7623046875 254.361328125 125.1 254.45 127.173828125 252.302734375 129.2 250.1 126.8232421875 252.2333984375 124.4 254.25
M 95.3 241.6
Q 96.092578125 242.08359375 96.9 242.55 98.5248046875 241.58984375 100.2 240.5 97.7884765625 241.083984375 95.3 241.6
M 218.3 96.05
Q 218.471875 95.6259765625 218.65 95.2 221.6341796875 88.076953125 223.5 82.1 223.3439453125 81.9849609375 223.2 81.85
L 220.75 81.45
Q 219.633203125 88.921484375 218.3 96.05 Z"/>

<path fill="#C1E8F8" stroke="none" d="
M 48.65 170.4
L 48.6 170.45
Q 48.8 171.45 48.95 172.45 49.6 175.95 50.55 179.4 81.2 139.6 109.6 95.65 67.7 154.4 64.85 147.4 56.85 159.05 48.65 170.4
M 93.4 68.8
L 93.35 68.75
Q 88.8 71.7 84.65 75.15 84.6 75.3 84.55 75.5 81.6232421875 87.42109375 67.15 104.75 66.4453125 105.602734375 65.7 106.45 65.84375 106.4298828125 65.95 106.4
L 58 115.1
Q 58.0404296875 115.0759765625 58.05 115.05 58.073046875 114.985546875 58.1 114.9 57.948046875 115.0861328125 57.8 115.25 55.8171875 117.3392578125 53.7 119.5 51.85 124.45 50.55 129.35 53.9271484375 125.954296875 57.05 122.7
L 57.05 122.75
Q 64.346875 115.7572265625 71.05 107.75 71.0037109375 107.7013671875 70.95 107.65 95.0978515625 79.98359375 93.4 68.8
M 200 170.7
Q 196.622265625 175.2982421875 193.1 179.95 161.7845703125 221.3857421875 129.2 250.1 127.173828125 252.302734375 125.1 254.45 126.95 254.95 128.8 255.4 141.45 258.25 154.25 257.75 154.35 257.55 154.5 257.4 160.95 249.1 167 240.6 170.25 236.05 173.4 231.45 189.4619140625 200.76640625 200 170.7 Z"/>

<path fill="#6797BB" stroke="none" d="
M 77.7 81.85
Q 71.35 88.15 66.35 95.05 61 102.8 56.85 111.85 55.15 115.7 53.7 119.5 55.8171875 117.3392578125 57.8 115.25 57.948046875 115.0861328125 58.1 114.9 58.073046875 114.985546875 58.05 115.05 58.0404296875 115.0759765625 58 115.1
L 65.95 106.4
Q 65.84375 106.4298828125 65.7 106.45 66.4453125 105.602734375 67.15 104.75 81.6232421875 87.42109375 84.55 75.5 81.05 78.5 77.7 81.85
M 114.5 58.2
Q 111.9 59.2 109.35 60.25 104.2779296875 84.240234375 73.5 115.35 73.337109375 115.5115234375 73.15 115.65 73.171484375 115.711328125 73.15 115.75
L 60.1 128.3
Q 60.056640625 128.2625 60 128.2 59.851953125 128.358984375 59.7 128.5 54.487890625 133.203515625 48.75 138.05 47.55 146.1 47.55 154.6 47.55 162.7 48.65 170.4 56.85 159.05 64.85 147.4 95.35 103.25 123.4 55.3 118.95 56.55 114.5 58.2 Z"/>

<path fill="#8ED5E7" stroke="none" d="
M 136.2 52.6
Q 136.2 52.55 136.25 52.5 134.35 52.8 132.45 53.15 127.9 54 123.4 55.3 95.35 103.25 64.85 147.4 67.7 154.4 109.6 95.65 123.15 74.6 136.2 52.6
M 93.35 68.75
L 93.4 68.8
Q 95.0978515625 79.98359375 70.95 107.65 71.0037109375 107.7013671875 71.05 107.75 64.346875 115.7572265625 57.05 122.75
L 57.05 122.7
Q 53.9271484375 125.954296875 50.55 129.35 50.05 131.3 49.6 133.25 49.05 135.7 48.65 138.15 48.7 138.1 48.75 138.05 54.487890625 133.203515625 59.7 128.5 59.851953125 128.358984375 60 128.2 60.056640625 128.2625 60.1 128.3
L 73.15 115.75
Q 73.171484375 115.711328125 73.15 115.65 73.337109375 115.5115234375 73.5 115.35 104.2779296875 84.240234375 109.35 60.25 101.45 63.65 94.55 68 93.95 68.35 93.35 68.75
M 214.9 74.1
Q 212.35 72.1 209.6 70.2 205.2 67.2 200.4 64.6 192.35 107.75 173.55 163.9 200.6 117.8 214.85 74.3 214.9 74.2 214.9 74.1 Z"/>

<path fill="#A0D1EE" stroke="none" d="
M 226.35 131.95
Q 214.580078125 150.819140625 200 170.7 189.4619140625 200.76640625 173.4 231.45 205.358984375 184.5896484375 226.35 131.95
M 235.2 160.9
Q 224.75 174.2 216.2 187.15 212.85 192.2 209.75 197.25 192.7 225.2 184.8 251.6 185.6 251.3 186.4 251.05 195.05 247.8 202.7 243.45 202.85 242.5 203.05 241.5 203.1 241.25 203.15 241
L 203.15 240.95
Q 209.55 207.9 235.2 160.9 Z"/>

<path fill="#4F78A7" stroke="none" d="
M 221 79.7
Q 220.9 80.6 220.75 81.45
L 223.2 81.85
Q 222.1 80.75 221 79.7 Z"/>

<path fill="#A4E7F1" stroke="none" d="
M 259.4 67.95
Q 279.7 16.7 266.45 6.2 253.2 -4.25 210.15 31 196.2 42.4 181.8 56.45
L 192.95 60.3
Q 211.9 48.6 220.8 53.5 230.7052734375 58.95 223.5 82.1 221.6341796875 88.076953125 218.65 95.2 218.471875 95.6259765625 218.3 96.05 203.6513671875 130.6046875 171.4 171.45 139.25 212.1 109.15 234.35 104.444921875 237.8146484375 100.2 240.5 98.5248046875 241.58984375 96.9 242.55 77.4236328125 254.0783203125 69.4 247.45 61.07265625 240.6185546875 68.8 217.35 68.82890625 217.3134765625 68.85 217.25
L 63.75 210.4 62.55 208.8
Q 54.25 223.15 47.65 236.7 23.35 286.75 36.6 297.2 49.9 307.65 98.5 274.2 111.5599609375 265.2205078125 124.4 254.25 126.8232421875 252.2333984375 129.2 250.1 161.7845703125 221.3857421875 193.1 179.95 196.622265625 175.2982421875 200 170.7 214.580078125 150.819140625 226.35 131.95 234.544921875 118.8484375 241.35 106.2 252.0634765625 86.4720703125 259.4 67.95 Z"/>
</g>
</defs>

<g transform="matrix( 1, 0, 0, 1, 0,0) ">
<use xlink:href="#Layer3_0_FILL"/>
</g>
</svg>
