
<svg xmlns="http://www.w3.org/2000/svg" version="1.1" xmlns:xlink="http://www.w3.org/1999/xlink" preserveAspectRatio="none" x="0px" y="0px" width="300px" height="300px" viewBox="0 0 300 300">
<defs>
<g id="Layer13_0_FILL">
<path fill="#997122" stroke="none" d="
M 82.1 278.8
Q 103.4 290.25 128 293.8 127.6 282.35 106.85 272.2 87.1 262.55 48.9 254.15 48.75 254 48.6 253.9 64.15 269.15 82.1 278.8
M 295.45 133.3
Q 292.25 133.15 289.05 132.9 272.9 131.9 256.15 129.55 253.6 129.2 251.1 128.8 173.9 117.15 84.7 78.1
L 84.75 77.85 84.65 78.1
Q 77.1267578125 74.7751953125 69.5 71.3 67.44921875 70.3857421875 65.4 69.45 64.7279296875 69.1193359375 64.05 68.8 61.35859375 67.512109375 58.65 66.2 56.270703125 65.087109375 53.9 63.95
L 42.4 58.4 42.45 58.4
Q 42.22578125 58.287890625 40.3 57.5
L 39 56.95
Q 40.0666015625 57.2048828125 38.3 56.3 38.5283203125 56.0279296875 38.75 55.75 4.65 95.5853515625 4.65 149.55 4.65 163.8 7 177.1 77.8 217.05 195.1 224.8 195.25 224.85 195.5 224.85 222.45 226.6 251.95 226.7 252.05 226.7 252.2 226.7 263.25 226.7 274.65 226.5 296.25 192.5 296.25 149.55 296.25 141.25 295.45 133.3
M 230.4 181.5
Q 197.4 158.1 150.6 150.05 204.8 145.15 234.6 173.75 247.15 185.7 255.4 203.6 244.1 191.2 230.4 181.5
M 258 51.1
Q 255.85 48.75 253.55 46.45 210.85 3.75 150.45 3.75 132 3.75 115.2 7.75 115.55 7.7 115.9 7.6 168.1 51.4 229.55 50.85 178.6 71.5 80.05 21.45 62.6 31.25 47.35 46.45 46.9748046875 46.825390625 46.6 47.2 129.95 89.45 222.15 103.65 238.5 106.15 255.15 107.8 273.05 109.55 291.25 110.25 282.4 77.45 258 51.1
M 104.05 237.1
Q 103.3 236.9 102.5 236.7 53.1 222.7 13.35 200.45
L 13.3 200.4
Q 22.2271484375 224.580859375 40.2 245 94.8 252.65 127 265.25 155.85 276.55 166.75 291.9 167.6 293.1 168.35 294.35 167.75 294.4 167.15 294.5 212.4 289.8 246.9 258.95 234.95 258.35 223.4 257.4 222.95 257.35 222.5 257.35 190.9 254.75 162.05 249.9
L 162 249.9
Q 161.15 249.75 160.3 249.6 130.75 244.55 104.05 237.1 Z"/>

<path fill="#AA8E37" stroke="none" d="
M 128 293.8
Q 138.95 295.35 150.45 295.35 154.65 295.35 158.75 295.15
L 167.15 294.5
Q 167.75 294.4 168.35 294.35 167.6 293.1 166.75 291.9 155.85 276.55 127 265.25 94.8 252.65 40.2 245
L 40.15 245
Q 40.55 245.45 40.95 245.85
L 46.55 251.8
Q 46.65 251.95 46.75 252.05 46.9 252.2 47.05 252.35 47.2 252.5 47.35 252.65
L 48.6 253.9
Q 48.75 254 48.9 254.15 87.1 262.55 106.85 272.2 127.6 282.35 128 293.8
M 150.6 150.05
Q 197.4 158.1 230.4 181.5 244.1 191.2 255.4 203.6 247.15 185.7 234.6 173.75 204.8 145.15 150.6 150.05
M 291.4 110.9
Q 291.35 110.55 291.25 110.25 273.05 109.55 255.15 107.8 238.5 106.15 222.15 103.65 161.3 106.55 84.8 77.9
L 84.7 78.1
Q 173.9 117.15 251.1 128.8 253.6 129.2 256.15 129.55
L 256.25 129
Q 274.7 131.1 290.2 124.1 292.1 123.25 293.95 122.25 293.55 120.1 293.1 118 292.85 116.7 292.55 115.45 292 113.15 291.4 110.9
M 274.65 226.5
Q 263.25 226.7 252.2 226.7 252.05 226.7 251.95 226.7 222.45 226.6 195.5 224.85
L 195.4 226.25
Q 178.8 241.65 162.15 248.95
L 162.15 249.2 162.05 249.9
Q 190.9 254.75 222.5 257.35 222.95 257.35 223.4 257.4 234.95 258.35 246.9 258.95 247.1 258.75 247.3 258.6
L 253.55 252.65
Q 265.85 240.35 274.65 226.5
M 8.9 185.85
Q 9.5 188.3 10.15 190.65 10.5 191.85 10.85 193
L 13.3 200.35
Q 13.3134765625 200.3865234375 13.3 200.4
L 13.35 200.45
Q 53.1 222.7 102.5 236.7 28.05 202.9 8.9 185.85 Z"/>

<path fill="#BAA856" stroke="none" d="
M 84.65 78.1
L 84.75 77.85
Q 84.8 77.85 84.8 77.9 161.3 106.55 222.15 103.65 129.95 89.45 46.6 47.2 45.8267578125 47.9830078125 45.05 48.75 43.8283203125 50.0705078125 42.6 51.35
L 38.75 55.75
Q 38.5283203125 56.0279296875 38.3 56.3 40.0666015625 57.2048828125 39 56.95
L 40.3 57.5
Q 42.22578125 58.287890625 42.45 58.4
L 42.4 58.4 53.9 63.95
Q 56.270703125 65.087109375 58.65 66.2 61.35859375 67.512109375 64.05 68.8 64.7279296875 69.1193359375 65.4 69.45 67.44921875 70.3857421875 69.5 71.3 77.1267578125 74.7751953125 84.65 78.1
M 7 177.1
Q 7.8 181.5 8.9 185.85 28.05 202.9 102.5 236.7 103.3 236.9 104.05 237.1 130.75 244.55 160.3 249.6 161.15 249.75 162 249.9
L 162.15 249.2 162.15 248.95
Q 178.8 241.65 195.4 226.25
L 195.5 224.85
Q 195.25 224.85 195.1 224.8 77.8 217.05 7 177.1
M 115.2 7.75
L 105 10.6
Q 92 14.75 80.05 21.45 178.6 71.5 229.55 50.85 168.1 51.4 115.9 7.6 115.55 7.7 115.2 7.75 Z"/>

<path fill="#8F631D" stroke="none" d="
M 84.8 77.9
Q 84.8 77.85 84.75 77.85
L 84.7 78.1 84.8 77.9 Z"/>

<path fill="#9D732A" stroke="none" d="
M 289.05 132.9
Q 292.25 133.15 295.45 133.3 295.4 132.7 295.35 132.2
L 295.2 131.05
Q 294.85 128.1 294.4 125.15 294.35 124.85 294.3 124.45 294.15 123.35 293.95 122.25 292.1 123.25 290.2 124.1 274.7 131.1 256.25 129
L 256.15 129.55
Q 272.9 131.9 289.05 132.9 Z"/>

<path fill="#9A7D2D" stroke="none" d="
M 162 249.9
L 162.05 249.9 162.15 249.2 162 249.9 Z"/>
</g>
</defs>

<g transform="matrix( 1, 0, 0, 1, 0,0) ">
<use xlink:href="#Layer13_0_FILL"/>
</g>
</svg>
