<?xml version="1.0" encoding="utf-8"?>
<!-- Generator: Adobe Illustrator 22.0.1, SVG Export Plug-In . SVG Version: 6.00 Build 0)  -->
<svg version="1.1" id="Layer_1" xmlns="http://www.w3.org/2000/svg" xmlns:xlink="http://www.w3.org/1999/xlink" x="0px" y="0px"
	 viewBox="0 0 300 300" style="enable-background:new 0 0 300 300;" xml:space="preserve">
<style type="text/css">
	.st0{fill:#89511A;}
	.st1{fill:#AA8E37;}
	.st2{fill:#8F631D;}
	.st3{fill:#9A7D2D;}
	.st4{fill:#997122;}
	.st5{fill:#BAA856;}
	.st6{fill:#9D732A;}
	.st7{fill:none;stroke:#000000;stroke-width:5;stroke-linecap:round;stroke-linejoin:round;}
</style>
<g transform="matrix( 0.5727691650390625, 0, 0, 0.5727691650390625, 149.5,150.25) ">
	<g transform="matrix( 1, 0, 0, 1, 0,0) ">
		<g>
			<g id="Venus_Self_0_Layer0_0_FILL">
				<path class="st0" d="M31.7,256.4c-0.7,0.1-1.4,0.2-2.1,0.3C83,251,130,230.1,170.7,193.7c-14-0.7-27.9-1.7-41.6-2.8
					c-28.4,24.2-61.9,44.5-100.3,61.1C29.8,253.4,30.8,254.9,31.7,256.4 M256.7-28.8c-3.7-0.2-7.5-0.4-11.3-0.7
					c-9.5,64.7-31.3,120.1-65.3,166c13.1,0,26.3-0.1,39.8-0.3C245.4,96.1,258.1,50.7,258.1,0C258.1-9.8,257.6-19.4,256.7-28.8z"/>
				<path class="st1" d="M0.3,0.8c55.2,9.5,102.3,28.1,141.2,55.7c16.2,11.5,31,24.5,44.3,39.2c-9.7-21.1-22-38.8-36.8-53
					C113.8,9.1,64.2-4.9,0.3,0.8 M180.1,136.6c-0.1,0-0.3,0-0.4,0c-34.8-0.1-68.1-1.2-99.9-3.3l-0.2,2.4
					C60,153.9,40.4,167.3,20.8,176l0,0.4l-0.2,1.3c34.1,5.7,69.8,10.1,107.1,13.2c0.5,0,1,0.1,1.5,0.1c13.7,1.1,27.5,2.1,41.6,2.8
					h0.1c0.3-0.2,0.5-0.5,0.8-0.7l11.1-10.5c14.5-14.5,27-30,37.4-46.3C206.4,136.5,193.1,136.6,180.1,136.6 M-195.2,169L-195.2,169
					c0.4,0.5,0.9,1,1.3,1.6l9.9,10.5c0.2,0.2,0.3,0.3,0.4,0.4c0.2,0.2,0.3,0.3,0.5,0.5c0.2,0.2,0.4,0.4,0.6,0.6l2.2,2.1
					c0.2,0.2,0.3,0.3,0.5,0.5c45.1,9.9,79.3,20.6,102.7,32c24.5,12,36.9,24.7,37.5,38.3c12.9,1.8,26.1,2.7,39.7,2.7
					c4.9,0,9.8-0.1,14.7-0.4l14.9-1.1c0.7-0.1,1.4-0.2,2.1-0.3c-0.9-1.5-1.9-2.9-2.9-4.4C16,233.9-7.5,218.2-41.6,204.8
					C-79.5,189.9-130.8,178-195.2,169 M-242.8,89.9c0,0.1,0.1,0.1,0.1,0.2c46.9,26.3,99.6,47.7,157.9,64.2
					c-87.9-39.9-143.2-69.9-165.8-90c0.7,2.9,1.5,5.7,2.3,8.5c0.4,1.4,0.8,2.8,1.2,4.1L-242.8,89.9 M187.1-35.4l0.1-1
					c21.8,2.5,41.9-0.4,60.2-8.7c2.2-1,4.4-2.1,6.6-3.3c-0.5-2.5-1-5.1-1.5-7.6c-0.3-1.5-0.6-3-0.9-4.4c-0.6-2.7-1.3-5.4-2-8.1
					c-0.1-0.4-0.2-0.7-0.3-1.1c-21.5-0.9-42.8-2.3-64-4.4c-19.6-1.9-39.1-4.3-58.4-7.3c-71.8,3.4-152.9-11.8-243.2-45.6l-0.1,0.3
					c105.3,46.1,203.4,76,294.5,89.8C181.1-36.3,184.1-35.8,187.1-35.4z"/>
				<path class="st2" d="M20.5,177.7c-1-0.2-2-0.4-3.1-0.5c-18.2,10.3-37.9,19.6-59,27.7C-7.5,218.2,16,233.9,28.8,252
					c38.4-16.5,71.9-36.9,100.3-61.1c-0.5,0-1-0.1-1.5-0.1C90.3,187.8,54.6,183.4,20.5,177.7L20.5,177.7 M-39.7,255.4
					c-0.5-13.5-13-26.3-37.5-38.3c-14.1,4.3-28.7,8.2-43.9,11.7C-95.9,242.3-68.8,251.2-39.7,255.4 M-116.3-126.9l0,0.4
					L-116.3-126.9C-116.3-126.9-116.3-126.9-116.3-126.9 M185.3-74c21.1,2.1,42.4,3.5,64,4.4c-10.4-38.7-30.1-73.6-58.9-104.8
					C191.7-138.6,190-105.1,185.3-74 M187.3-36.4l-0.1,1c-3-0.4-6-0.9-9-1.3c-6.9,28.6-16.6,55.1-29.1,79.5
					c14.8,14.2,27,31.8,36.8,53c-13.3-14.6-28.1-27.7-44.3-39.2C124.8,85.3,104,110.9,79,133.3c0.2,0,0.5,0,0.8,0.1
					c31.8,2.1,65.1,3.1,99.9,3.3c0.1,0,0.3,0,0.4,0c34-45.9,55.8-101.3,65.3-166c-19.1-1.2-38.5-3.2-58.2-6L187.3-36.4z"/>
				<path class="st3" d="M20.7,176.4l-0.3,1.3h0L20.7,176.4z"/>
				<path class="st4" d="M-179.8,185.2c-0.2-0.2-0.3-0.3-0.5-0.5c18.4,18,38.1,32.7,59.3,44.2c15.2-3.5,29.8-7.4,43.9-11.7
					C-100.5,205.7-134.7,195.1-179.8,185.2 M-82.1,155c-0.9-0.3-1.9-0.5-2.8-0.8c-58.3-16.5-110.9-37.9-157.9-64.2
					c0-0.1-0.1-0.1-0.1-0.2c10.5,28.6,26.4,54.9,47.6,79.1c64.4,9,115.7,21,153.7,35.9c21.1-8.1,40.7-17.4,59-27.7
					C-17.4,171.2-50.6,163.8-82.1,155 M190.4-174.3c-2.6-2.8-5.2-5.5-7.9-8.2C132.1-232.9,71.3-258.1,0-258.1
					c-21.8,0-42.6,2.3-62.5,7c0.4-0.1,0.8-0.2,1.3-0.3C0.4-199.6,67.5-174.1,140-174.7c-60.1,24.3-148.3,7-264.6-52.1
					c-20.6,11.6-39.9,26.3-57.9,44.3C-232.9-132.1-258.1-71.3-258.1,0c0,16.8,1.4,33.1,4.2,48.8c83.5,47.1,194.5,75.3,332.9,84.5
					c25-22.4,45.8-47.9,62.5-76.7C102.6,28.9,55.5,10.3,0.3,0.8c64-5.8,113.5,8.2,148.8,41.9c12.5-24.3,22.2-50.8,29.1-79.5
					c-91-13.8-189.2-43.7-294.5-89.8l0-0.4l-0.1,0.4c-18.3-8.1-36.9-16.6-55.7-25.6c-1.5,5.3-4.2,10.8-8,16.5
					c-4.6,6.9-9.6,12.1-14.9,15.6c-5.3,3.5-9.4,4.3-12.3,2.3c-2.9-1.9-3.7-6-2.5-12.3c1.2-6.2,4.1-12.8,8.8-19.6
					c3.2-4.7,6.5-8.6,9.9-11.7c-2.5-1.2-4.9-2.4-7.4-3.7c4.6-5.5,9.6-10.9,14.8-16.1C-85.5-131.3,18.1-98,127-81.3
					c19.3,3,38.7,5.4,58.4,7.3C190-105.1,191.7-138.6,190.4-174.3 M-171.5-64.7c2,2.5,3.1,5.6,3.1,9.2c0,3.6-1,6.7-3.1,9.2
					c-2,2.5-4.5,3.8-7.4,3.8c-2.9,0-5.4-1.3-7.4-3.8c-2-2.5-3.1-5.6-3.1-9.2c0-3.6,1-6.7,3.1-9.2c2-2.5,4.5-3.8,7.4-3.8
					C-176-68.5-173.5-67.2-171.5-64.7 M-63.8-62.4c2.9,0,5.4,1.3,7.4,3.8s3.1,5.6,3.1,9.2c0,3.6-1,6.7-3.1,9.2
					c-2,2.5-4.5,3.8-7.4,3.8c-2.9,0-5.4-1.3-7.4-3.8c-2-2.5-3.1-5.6-3.1-9.2c0-3.6,1-6.7,3.1-9.2S-66.7-62.4-63.8-62.4 M-151.5-7
					c11.7,13.8,26.3,14.4,43.9,1.9C-125.1,7.4-139.8,6.8-151.5-7z"/>
				<path class="st5" d="M-84.9,154.3c0.9,0.2,1.8,0.5,2.8,0.8c31.5,8.8,64.7,16.2,99.5,22.1c1,0.2,2,0.4,3.1,0.5l0.3-1.3l0-0.4
					c19.6-8.6,39.3-22,58.9-40.2l0.2-2.4c-0.3,0-0.5,0-0.8-0.1c-138.4-9.2-249.4-37.4-332.9-84.5c0.9,5.2,2,10.4,3.3,15.6
					C-228,84.4-172.8,114.4-84.9,154.3 M-191.2-161.4c-3.5,3.1-6.8,7-9.9,11.7c-4.6,6.9-7.6,13.4-8.8,19.6
					c-1.2,6.3-0.4,10.4,2.5,12.3c2.9,2,7,1.2,12.3-2.3c5.3-3.5,10.3-8.7,14.9-15.6c3.9-5.7,6.5-11.2,8-16.5
					c18.8,9,37.3,17.5,55.7,25.6l0.1-0.4c0,0,0.1,0,0.1,0.1c90.3,33.8,171.4,49,243.2,45.6C18.1-98-85.5-131.3-183.8-181.2
					c-5.2,5.2-10.1,10.6-14.8,16.1C-196.1-163.9-193.7-162.6-191.2-161.4 M-61.2-251.3c-0.4,0.1-0.8,0.2-1.3,0.3l-18,5
					c-15.3,4.9-30.1,11.3-44.2,19.3C-8.3-167.7,79.9-150.4,140-174.7C67.5-174.1,0.4-199.6-61.2-251.3z"/>
				<path class="st6" d="M187.3-36.4l-0.1,1c19.7,2.8,39.1,4.7,58.2,6c3.8,0.3,7.6,0.5,11.3,0.7h0.1c-0.1-0.7-0.2-1.3-0.3-2l-0.2-2
					c-0.4-3.5-0.9-7-1.4-10.4c-0.1-0.4-0.1-0.8-0.2-1.3c-0.2-1.3-0.4-2.6-0.6-3.9c-2.2,1.2-4.4,2.2-6.6,3.3
					C229.1-36.8,209.1-33.9,187.3-36.4z"/>
				<path d="M-56.4-58.6c-2-2.5-4.5-3.8-7.4-3.8c-2.9,0-5.4,1.3-7.4,3.8s-3.1,5.6-3.1,9.2c0,3.6,1,6.7,3.1,9.2
					c2,2.5,4.5,3.8,7.4,3.8c2.9,0,5.4-1.3,7.4-3.8c2-2.5,3.1-5.6,3.1-9.2C-53.4-53-54.4-56.1-56.4-58.6 M-168.4-55.5
					c0-3.6-1-6.7-3.1-9.2c-2-2.5-4.5-3.8-7.4-3.8c-2.9,0-5.4,1.3-7.4,3.8c-2,2.5-3.1,5.6-3.1,9.2c0,3.6,1,6.7,3.1,9.2
					c2,2.5,4.5,3.8,7.4,3.8c2.9,0,5.4-1.3,7.4-3.8C-169.4-48.8-168.4-51.9-168.4-55.5z"/>
			</g>
		</g>
		<g>
			<path class="st7" d="M-151.5-7c11.7,13.8,26.3,14.4,43.9,1.9"/>
		</g>
	</g>
</g>
</svg>
